<?xml version="1.0" encoding="UTF-8"?>
<svg id="_レイヤー_2" xmlns="http://www.w3.org/2000/svg" version="1.1" xmlns:xlink="http://www.w3.org/1999/xlink" viewBox="0 0 304.9 300.3">
  <!-- Generator: Adobe Illustrator 30.0.0, SVG Export Plug-In . SVG Version: 2.1.1 Build 123)  -->
  <defs>
    <style>
      .st0 {
        fill: none;
        stroke: #fff;
        stroke-width: 7px;
      }

      .st1 {
        fill: #fff;
      }

      .st2 {
        fill: url(#_名称未設定グラデーション_124);
      }

      .st3 {
        fill: #444;
      }
    </style>
    <linearGradient id="_名称未設定グラデーション_124" data-name="名称未設定グラデーション 124" x1="319" y1="-16.4" x2="86.1" y2="216.5" gradientUnits="userSpaceOnUse">
      <stop offset="0" stop-color="#d6e9c0"/>
      <stop offset="1" stop-color="#15acff"/>
    </linearGradient>
  </defs>
  <g id="_枠">
    <g>
      <path class="st2" d="M152.5,296c-4.9,0-9.8-1.4-13.9-4l-15.6-9.8c-3.1-1.9-6.8-3-10.5-3h-.4s-18.2.7-18.2.7c-.3,0-.6,0-.9,0-9.8,0-18.7-5.4-23.3-14l-8.6-16.2c-1.7-3.4-4.6-6.2-8-8l-16.2-8.6c-8.9-4.7-14.4-14.2-14-24.3l.7-18.3c.2-3.9-.8-7.7-2.9-10.8l-9.8-15.7c-5.3-8.5-5.3-19.4,0-27.9l9.8-15.6c2-3.3,3.1-7.1,3-11l-.7-18.2c-.3-10.2,5-19.5,14-24.2l16.2-8.6c3.4-1.8,6.3-4.6,8-8l8.6-16.2c4.5-8.6,13.4-14,23.1-14s.8,0,1.2,0l18.3.7c.3,0,.6,0,.9,0,3.6,0,7.1-1,10-2.9l15.7-9.8c4.2-2.6,9-4,14-4s9.8,1.4,13.9,4l15.6,9.8c3.1,1.9,6.8,3,10.5,3h.4s18.2-.7,18.2-.7c.3,0,.6,0,.9,0,9.8,0,18.7,5.4,23.3,14l8.6,16.2c1.8,3.4,4.6,6.3,8,8l16.2,8.6c8.9,4.7,14.4,14.2,14,24.3l-.7,18.3c-.2,3.9.8,7.7,2.9,10.8l9.8,15.7c5.3,8.5,5.3,19.4,0,27.9l-9.8,15.6c-2,3.3-3.1,7.1-3,11l.7,18.2c.3,10.2-5,19.5-14,24.2l-16.2,8.6c-3.4,1.7-6.2,4.6-8,8l-8.6,16.2c-4.5,8.6-13.4,14-23.1,14s-.8,0-1.2,0l-18.3-.7c-.3,0-.6,0-.9,0-3.6,0-7.1,1-10,2.9l-15.7,9.8c-4.2,2.6-9,4-14,4Z"/>
      <path class="st1" d="M152.5,7.8c4.2,0,8.4,1.1,12.1,3.5l15.6,9.8c3.7,2.3,8.1,3.5,12.4,3.5s.3,0,.5,0l18.3-.7c.3,0,.5,0,.8,0,8.5,0,16.2,4.6,20.2,12.1l8.6,16.2c2.1,4,5.5,7.4,9.5,9.5l16.2,8.6c7.8,4.1,12.5,12.3,12.1,21l-.7,18.3c-.2,4.6,1,9.1,3.5,12.9l9.8,15.6c4.6,7.4,4.6,16.8,0,24.2l-9.8,15.6c-2.4,3.9-3.6,8.4-3.5,12.9l.7,18.3c.3,8.8-4.4,16.9-12.1,21l-16.2,8.6c-4.1,2.1-7.4,5.5-9.5,9.5l-8.6,16.2c-3.9,7.5-11.7,12.1-20,12.1s-.7,0-1,0l-18.3-.7c-.3,0-.7,0-1,0-4.3,0-8.4,1.2-11.9,3.5l-15.6,9.8c-3.7,2.3-7.9,3.4-12.1,3.4s-8.4-1.1-12.1-3.4l-15.6-9.8c-3.7-2.3-8.1-3.5-12.4-3.5-.2,0-.3,0-.5,0l-18.3.7c-.3,0-.5,0-.8,0-8.5,0-16.2-4.6-20.2-12.1l-8.6-16.2c-2.1-4.1-5.5-7.4-9.5-9.5l-16.2-8.6c-7.8-4.1-12.5-12.3-12.1-21l.7-18.3c.2-4.6-1-9.1-3.5-12.9l-9.8-15.6c-4.6-7.4-4.6-16.8,0-24.2l9.8-15.6c2.4-3.9,3.6-8.4,3.5-12.9l-.7-18.3c-.3-8.8,4.4-16.9,12.1-21l16.2-8.6c4-2.1,7.4-5.5,9.5-9.5l8.6-16.2c3.9-7.5,11.7-12.1,20-12.1s.7,0,1,0l18.3.7c.3,0,.7,0,1,0,4.3,0,8.4-1.2,11.9-3.5l15.6-9.8c3.7-2.3,7.9-3.5,12.1-3.5M152.5.8c-5.6,0-11.1,1.6-15.8,4.5l-15.6,9.8h0s0,0,0,0c-2.4,1.6-5.1,2.4-8.1,2.4s-.5,0-.7,0l-18.3-.7c-.4,0-.9,0-1.3,0-11,0-21,6.1-26.2,15.9l-8.6,16.2c-1.4,2.8-3.8,5.2-6.6,6.6l-16.2,8.6c-10.1,5.4-16.2,15.9-15.8,27.4l.7,18.3c0,3.2-.8,6.3-2.5,9l-9.8,15.6c-6,9.6-6,22,0,31.6l9.8,15.6h0c0,0,0,.1,0,.1,1.7,2.6,2.5,5.6,2.4,8.7l-.7,18.3c-.5,11.4,5.7,22.2,15.8,27.5l16.2,8.6c2.8,1.5,5.2,3.8,6.6,6.5h0s0,0,0,0l8.6,16.2c5.2,9.8,15.3,15.8,26.4,15.8s.7,0,1,0l18.3-.7c.1,0,.2,0,.3,0,3.1,0,6.1.8,8.7,2.5l15.6,9.8c4.8,3,10.2,4.5,15.8,4.5s11.1-1.6,15.8-4.5l15.6-9.8h0s0,0,0,0c2.4-1.6,5.1-2.4,8.1-2.4.2,0,.5,0,.7,0l18.3.7c.4,0,.9,0,1.3,0,11,0,21-6.1,26.2-15.9l8.6-16.2c1.5-2.8,3.8-5.2,6.5-6.6h0s0,0,0,0l16.2-8.6c10.1-5.4,16.2-15.9,15.8-27.4l-.7-18.3c0-3.2.8-6.3,2.5-9l9.8-15.6c6-9.6,6-22,0-31.6l-9.8-15.6h0c0,0,0-.1,0-.1-1.7-2.6-2.5-5.6-2.4-8.7l.7-18.3c.5-11.4-5.7-22.2-15.8-27.5l-16.2-8.6c-2.8-1.4-5.2-3.8-6.6-6.6l-8.6-16.2c-5.2-9.8-15.3-15.8-26.4-15.8s-.7,0-1,0l-18.3.7c-.1,0-.2,0-.3,0-3.1,0-6.1-.8-8.7-2.5l-15.6-9.8c-4.8-3-10.2-4.5-15.8-4.5h0Z"/>
    </g>
  </g>
  <g>
    <g>
      <ellipse class="st0" cx="356.6" cy="196.8" rx="43" ry="48.5"/>
      <path class="st0" d="M356.6,249.6c-26.1,0-47.3-23.7-47.3-52.8s21.2-52.8,47.3-52.8,47.3,23.7,47.3,52.8-21.2,52.8-47.3,52.8ZM356.6,152.6c-21.3,0-38.7,19.8-38.7,44.2s17.4,44.2,38.7,44.2,38.7-19.8,38.7-44.2-17.4-44.2-38.7-44.2Z"/>
    </g>
    <g>
      <ellipse class="st1" cx="356.6" cy="196.8" rx="43" ry="48.5"/>
      <path class="st3" d="M356.6,249.6c-26.1,0-47.3-23.7-47.3-52.8s21.2-52.8,47.3-52.8,47.3,23.7,47.3,52.8-21.2,52.8-47.3,52.8ZM356.6,152.6c-21.3,0-38.7,19.8-38.7,44.2s17.4,44.2,38.7,44.2,38.7-19.8,38.7-44.2-17.4-44.2-38.7-44.2Z"/>
    </g>
  </g>
</svg>