<?xml version="1.0" encoding="UTF-8"?>
<svg id="_レイヤー_2" data-name="レイヤー 2" xmlns="http://www.w3.org/2000/svg" viewBox="0 0 126.2 126.2">
  <defs>
    <style>
      .cls-1 {
        fill: #fff;
      }

      .cls-2 {
        fill: none;
        stroke: #15acff;
        stroke-linecap: round;
        stroke-linejoin: round;
        stroke-width: 7px;
      }

      .cls-3 {
        fill: #15acff;
      }
    </style>
  </defs>
  <g id="_スマホデザイン" data-name="スマホデザイン">
    <g>
      <g>
        <path class="cls-1" d="M63.1,123.2c-16.05,0-31.15-6.25-42.5-17.6C-2.83,82.16-2.83,44.04,20.6,20.6,31.95,9.25,47.05,3,63.1,3s31.15,6.25,42.5,17.6c23.43,23.43,23.43,61.56,0,85-11.35,11.35-26.44,17.6-42.5,17.6Z"/>
        <path class="cls-3" d="M63.1,6c15.25,0,29.59,5.94,40.38,16.72,10.78,10.78,16.72,25.12,16.72,40.38s-5.94,29.59-16.72,40.38c-10.78,10.79-25.12,16.72-40.38,16.72s-29.59-5.94-40.38-16.72c-10.78-10.78-16.72-25.12-16.72-40.38s5.94-29.59,16.72-40.38C33.51,11.94,47.85,6,63.1,6M63.1,0C46.95,0,30.8,6.16,18.48,18.48c-24.64,24.64-24.64,64.6,0,89.24,12.32,12.32,28.47,18.48,44.62,18.48s32.3-6.16,44.62-18.48c24.64-24.64,24.64-64.6,0-89.24C95.4,6.16,79.25,0,63.1,0h0Z"/>
      </g>
      <g>
        <line class="cls-2" x1="42.91" y1="63.1" x2="83.3" y2="63.1"/>
        <line class="cls-2" x1="63.1" y1="42.91" x2="63.1" y2="83.3"/>
      </g>
    </g>
  </g>
</svg>