<?xml version="1.0" encoding="UTF-8"?>
<svg id="_レイヤー_2" xmlns="http://www.w3.org/2000/svg" version="1.1" viewBox="0 0 131.1 131.1">
  <!-- Generator: Adobe Illustrator 30.0.0, SVG Export Plug-In . SVG Version: 2.1.1 Build 123)  -->
  <defs>
    <style>
      .st0 {
        fill: none;
        stroke: #fff;
        stroke-linecap: round;
        stroke-linejoin: round;
        stroke-width: 9px;
      }

      .st1 {
        fill: #fff;
      }

      .st2 {
        opacity: .4;
      }

      .st3 {
        fill: #15acff;
      }
    </style>
  </defs>
  <g>
    <circle class="st3" cx="65.5" cy="65.6" r="56.5"/>
    <g class="st2">
      <path class="st1" d="M65.5,9c14.5,0,28.9,5.5,40,16.6,22.1,22.1,22.1,57.9,0,80-11,11-25.5,16.6-40,16.6s-28.9-5.5-40-16.6c-22.1-22.1-22.1-57.9,0-80,11-11,25.5-16.6,40-16.6M65.5,0C48,0,31.5,6.8,19.2,19.2c-25.6,25.6-25.6,67.1,0,92.7,12.4,12.4,28.8,19.2,46.3,19.2s34-6.8,46.3-19.2,19.2-28.8,19.2-46.3-6.8-34-19.2-46.3C99.5,6.8,83,0,65.5,0h0Z"/>
    </g>
  </g>
  <g>
    <line class="st0" x1="48.3" y1="66.5" x2="82.8" y2="66.5"/>
    <line class="st0" x1="65.5" y1="49.3" x2="65.5" y2="83.8"/>
  </g>
</svg>