<?xml version="1.0" encoding="UTF-8"?>
<svg id="_レイヤー_2" xmlns="http://www.w3.org/2000/svg" version="1.1" viewBox="0 0 285 285">
  <!-- Generator: Adobe Illustrator 30.0.0, SVG Export Plug-In . SVG Version: 2.1.1 Build 123)  -->
  <defs>
    <style>
      .st0 {
        fill: #15acff;
      }
    </style>
  </defs>
  <g id="_枠">
    <path class="st0" d="M281.5,154.6l-9.8,15.6c-2.4,3.9-3.6,8.4-3.5,12.9l.7,18.3c.3,8.8-4.4,16.9-12.1,21l-16.2,8.6c-4.1,2.1-7.4,5.5-9.5,9.5l-8.6,16.2c-4.1,7.8-12.3,12.5-21,12.1l-18.3-.7c-4.6-.2-9.1,1-12.9,3.5l-15.6,9.8c-7.4,4.6-16.8,4.6-24.2,0l-15.6-9.8c-3.9-2.4-8.4-3.6-12.9-3.5l-18.3.7c-8.8.3-16.9-4.4-21-12.1l-8.6-16.2c-2.1-4.1-5.5-7.4-9.5-9.5l-16.2-8.6c-7.8-4.1-12.5-12.3-12.1-21l.7-18.3c.2-4.6-1-9.1-3.5-12.9l-9.8-15.6c-4.6-7.4-4.6-16.8,0-24.2l9.8-15.6c2.4-3.9,3.6-8.4,3.5-12.9l-.7-18.3c-.3-8.8,4.4-16.9,12.1-21l16.2-8.6c4-2.1,7.4-5.5,9.5-9.5l8.6-16.2c4.1-7.8,12.3-12.5,21-12.1l18.3.7c4.6.2,9.1-1,12.9-3.5l15.6-9.8c7.4-4.6,16.8-4.6,24.2,0l15.6,9.8c3.9,2.4,8.4,3.6,12.9,3.5l18.3-.7c8.8-.3,16.9,4.4,21,12.1l8.6,16.2c2.1,4,5.5,7.4,9.5,9.5l16.2,8.6c7.8,4.1,12.5,12.3,12.1,21l-.7,18.3c-.2,4.6,1,9.1,3.5,12.9l9.8,15.6c4.6,7.4,4.6,16.8,0,24.2h0Z"/>
  </g>
</svg>