<?xml version="1.0" encoding="UTF-8"?>
<svg id="_レイヤー_2" data-name="レイヤー 2" xmlns="http://www.w3.org/2000/svg" viewBox="0 0 131.06 131.09">
  <defs>
    <style>
      .cls-1 {
        fill: none;
        stroke: #fff;
        stroke-linecap: round;
        stroke-linejoin: round;
        stroke-width: 9px;
      }

      .cls-2 {
        fill: #fff;
      }

      .cls-3 {
        opacity: .4;
      }

      .cls-4 {
        fill: #15acff;
      }
    </style>
  </defs>
  <g id="_スマホデザイン" data-name="スマホデザイン">
    <g>
      <g>
        <circle class="cls-4" cx="65.51" cy="65.55" r="56.55"/>
        <g class="cls-3">
          <path class="cls-2" d="M65.51,9c14.47,0,28.94,5.52,39.98,16.56,22.08,22.08,22.08,57.88,0,79.97-11.04,11.04-25.51,16.56-39.98,16.56s-28.94-5.52-39.98-16.56C3.45,83.45,3.45,47.64,25.53,25.56c11.04-11.04,25.51-16.56,39.98-16.56M65.51,0C48.01,0,31.55,6.82,19.17,19.2c-25.56,25.56-25.56,67.14,0,92.7,12.38,12.38,28.84,19.2,46.35,19.2s33.97-6.82,46.35-19.2,19.2-28.84,19.2-46.35-6.82-33.97-19.2-46.35C99.48,6.82,83.02,0,65.51,0h0Z"/>
        </g>
      </g>
      <g>
        <line class="cls-1" x1="45.32" y1="65.55" x2="85.71" y2="65.55"/>
        <line class="cls-1" x1="65.51" y1="45.35" x2="65.51" y2="85.74"/>
      </g>
    </g>
  </g>
</svg>