<?xml version="1.0" encoding="UTF-8"?>
<svg id="_枠" data-name="枠" xmlns="http://www.w3.org/2000/svg" xmlns:xlink="http://www.w3.org/1999/xlink" viewBox="0 0 32 32">
  <defs>
    <style>
      .cls-1 {
        fill: #fff;
      }

      .cls-2 {
        fill: #373c4f;
      }

      .cls-3 {
        fill: #444;
      }

      .cls-4 {
        fill: #15acff;
      }

      .cls-5 {
        fill: url(#_名称未設定グラデーション_17);
      }
    </style>
    <linearGradient id="_名称未設定グラデーション_17" data-name="名称未設定グラデーション 17" x1="195" y1="1065.31" x2="197.84" y2="1063.79" gradientTransform="translate(220.8 1080.64) rotate(-180)" gradientUnits="userSpaceOnUse">
      <stop offset="0" stop-color="#373c4f"/>
      <stop offset=".53" stop-color="#fff"/>
      <stop offset="1" stop-color="#373c4f"/>
    </linearGradient>
  </defs>
  <g>
    <ellipse class="cls-1" cx="8.86" cy="16" rx="7.14" ry="8.05"/>
    <path class="cls-3" d="M8.86,24.77c-4.33,0-7.86-3.93-7.86-8.77s3.52-8.77,7.86-8.77,7.86,3.93,7.86,8.77-3.52,8.77-7.86,8.77ZM8.86,8.66c-3.54,0-6.43,3.29-6.43,7.34s2.88,7.34,6.43,7.34,6.43-3.29,6.43-7.34-2.88-7.34-6.43-7.34Z"/>
  </g>
  <g>
    <ellipse class="cls-1" cx="23.14" cy="16" rx="7.14" ry="8.05"/>
    <path class="cls-2" d="M23.14,24.77c-4.33,0-7.86-3.93-7.86-8.77s3.52-8.77,7.86-8.77,7.86,3.93,7.86,8.77-3.52,8.77-7.86,8.77ZM23.14,8.66c-3.54,0-6.43,3.29-6.43,7.34s2.88,7.34,6.43,7.34,6.43-3.29,6.43-7.34-2.88-7.34-6.43-7.34Z"/>
  </g>
  <g>
    <ellipse class="cls-1" cx="8.86" cy="16" rx="7.14" ry="8.05"/>
    <path class="cls-2" d="M8.86,24.77c-4.33,0-7.86-3.93-7.86-8.77s3.52-8.77,7.86-8.77,7.86,3.93,7.86,8.77-3.52,8.77-7.86,8.77ZM8.86,8.66c-3.54,0-6.43,3.29-6.43,7.34s2.88,7.34,6.43,7.34,6.43-3.29,6.43-7.34-2.88-7.34-6.43-7.34Z"/>
  </g>
  <path class="cls-2" d="M10.67,19.7c-1.68-.4-2.42-.9-2.5-.96-.35-.25-.43-.73-.18-1.08.25-.35.73-.43,1.08-.18,0,0,.59.39,1.96.72.51.12.78.12.9.11.17-.2.44-.31.72-.26.42.07.71.47.64.89-.02.12-.11.44-.46.67-.26.17-.58.26-1,.26-.33,0-.71-.05-1.15-.16ZM11.75,18.68s0,0,0,0c0,0,0,0,0,0ZM11.75,18.68h0s0,0,0,0Z"/>
  <path class="cls-2" d="M21.57,17.74c0-2.1,1.7-3.8,3.8-3.8s3.8,1.7,3.8,3.8-1.7,4.51-3.8,4.51-3.8-2.42-3.8-4.51Z"/>
  <circle class="cls-1" cx="26.4" cy="20.09" r="1.43"/>
  <path class="cls-5" d="M25.62,15.32c.16,0,.29.12.3.28,0,.16-.12.3-.28.31-1.49.07-2.08,1-2.11,1.04-.09.14-.27.18-.41.1-.14-.09-.18-.27-.1-.41.03-.05.77-1.25,2.59-1.33,0,0,0,0,.01,0Z"/>
  <path class="cls-4" d="M24.44,18.45c-.38-.18-.67-.55-.78-1-.11.45-.4.83-.78,1,.38.18.67.55.78,1,.11-.45.4-.83.78-1Z"/>
</svg>