<?xml version="1.0" encoding="UTF-8"?>
<svg id="_レイヤー_2" data-name="レイヤー 2" xmlns="http://www.w3.org/2000/svg" viewBox="0 0 376.38 110.19">
  <defs>
    <style>
      .cls-1 {
        fill: #fff;
      }

      .cls-1, .cls-2 {
        opacity: .78;
        stroke: #373c4f;
        stroke-miterlimit: 10;
        stroke-width: 2px;
      }

      .cls-2 {
        fill: none;
      }

      .cls-3 {
        fill: #373c4f;
      }
    </style>
  </defs>
  <g id="_枠" data-name="枠">
    <g>
      <path class="cls-1" d="M321.81,1H62.97c-26.52,0-48.52,19.27-52.8,44.57-.24,1.41-1.06,2.66-2.22,3.48l-6.01,4.24c-1.24.88-1.24,2.72,0,3.6l6.01,4.24c1.17.82,1.99,2.07,2.22,3.48,4.28,25.3,26.28,44.57,52.8,44.57h258.85c29.58,0,53.57-23.98,53.57-53.57v-1.06c0-29.58-23.98-53.57-53.57-53.57Z"/>
      <path class="cls-2" d="M321.81,1H62.97c-26.52,0-48.52,19.27-52.8,44.57-.24,1.41-1.06,2.66-2.22,3.48l-6.01,4.24c-1.24.88-1.24,2.72,0,3.6l6.01,4.24c1.17.82,1.99,2.07,2.22,3.48,4.28,25.3,26.28,44.57,52.8,44.57h258.85c29.58,0,53.57-23.98,53.57-53.57v-1.06c0-29.58-23.98-53.57-53.57-53.57Z"/>
      <g>
        <g>
          <path class="cls-3" d="M48.97,40.76v-10.74h2.43v8.43h2.85v-11.23h2.43v11.23h2.85v-8.43h2.43v10.74h-12.99Z"/>
          <path class="cls-3" d="M70.64,41.27v-2.38h-2.22v-2.16h2.22v-3.04c-.46.69-.97,1.38-1.54,2.05-.57.67-1.15,1.3-1.75,1.89-.6.59-1.21,1.1-1.82,1.54-.21-.31-.47-.62-.77-.93-.3-.31-.6-.57-.9-.77.47-.29.96-.65,1.49-1.08.52-.43,1.04-.91,1.56-1.45.52-.53,1-1.09,1.46-1.66.46-.58.86-1.15,1.22-1.71h-5.04v-2.11h6.08v-2.82h2.32v2.82h6.1v2.11h-5.04c.35.57.76,1.14,1.21,1.71.46.58.95,1.13,1.46,1.66s1.04,1.02,1.56,1.45c.52.43,1.02.79,1.49,1.08-.3.2-.6.46-.9.77-.3.31-.55.62-.77.93-.6-.44-1.2-.95-1.82-1.54-.61-.59-1.2-1.22-1.76-1.9-.56-.67-1.08-1.35-1.54-2.05v3.06h2.27v2.16h-2.27v2.38h-2.32Z"/>
          <path class="cls-3" d="M91.77,41.37v-3.15c-.68.59-1.47,1.15-2.36,1.7-.89.54-1.78.99-2.66,1.34-.12-.29-.3-.62-.56-1s-.51-.69-.75-.94c.75-.21,1.53-.52,2.35-.93s1.56-.85,2.21-1.34h-4.29v-1.87h2.67c-.17-.31-.37-.62-.61-.94-.23-.31-.45-.57-.64-.76l1.54-.85h-.81c-.27,0-.54,0-.81-.02-.04-.31-.11-.66-.21-1.04-.1-.38-.22-.71-.36-.99.94.05,1.92.07,2.95.06,1.03-.02,2.05-.07,3.07-.16,1.02-.09,1.97-.22,2.86-.38h-1.54v-.82h-1.98v.91h-2.22v-.91h-3.79v-1.76h3.79v-.96h2.22v.96h1.98v-.96h2.22v.96h3.84v1.76h-3.84v.67c.57-.13,1.08-.27,1.55-.43l1.22,1.89c-.27.07-.55.15-.84.22-.29.07-.59.13-.9.18l1.33.42c-.17.46-.4.96-.69,1.51-.29.55-.57,1.03-.83,1.43h3.26v1.87h-4.11c.65.47,1.38.9,2.18,1.28.81.38,1.58.68,2.31.9-.26.25-.51.57-.76.96-.25.39-.44.74-.57,1.02-.58-.21-1.17-.48-1.79-.81s-1.21-.69-1.78-1.09-1.09-.81-1.56-1.24v3.3h-2.29ZM89.52,35.17h2.26v-.8h.24c-.15-.29-.32-.57-.5-.84-.19-.27-.36-.51-.52-.71l.7-.32c-.43.03-.86.06-1.29.07-.43.02-.86.03-1.29.04.27.28.53.59.78.95.25.36.48.7.68,1.03-.35.17-.7.36-1.06.58ZM94.06,35.17h2.54c-.27-.16-.56-.31-.87-.46-.32-.14-.62-.25-.92-.33.23-.33.47-.71.7-1.15.23-.44.42-.85.58-1.25-.94.16-1.91.29-2.91.38.19.26.38.53.56.81.18.28.34.57.48.87-.11.04-.22.09-.35.15s-.25.11-.37.17h.56v.8Z"/>
          <path class="cls-3" d="M102.97,41.35c-.12-.33-.29-.7-.53-1.12s-.46-.76-.67-1.02c1.35-.23,2.55-.65,3.58-1.24,1.03-.59,1.77-1.31,2.23-2.15h-5.68v-2.08h1.62v-4.85h4.53v-2.19h2.38v2.19h4.59v4.85h1.58v2.08h-5.46c.29.52.71,1.02,1.27,1.48s1.22.86,1.98,1.19c.76.33,1.58.57,2.44.72-.2.27-.42.61-.66,1.02s-.41.79-.53,1.12c-.89-.16-1.73-.44-2.52-.83-.79-.4-1.5-.88-2.13-1.45-.62-.57-1.13-1.18-1.53-1.83-.61.94-1.47,1.76-2.58,2.46-1.11.7-2.42,1.25-3.93,1.66ZM105.92,33.73h2.13v-2.77h-2.13v2.77ZM110.43,33.73h2.21v-2.77h-2.21v2.77Z"/>
          <path class="cls-3" d="M120.88,41.13c-.44,0-.84-.11-1.21-.33-.37-.22-.67-.51-.89-.89-.22-.37-.33-.79-.33-1.25s.11-.86.33-1.22.51-.66.88-.88.78-.33,1.22-.33.87.11,1.24.33c.37.22.66.51.88.88.22.37.33.78.33,1.22s-.11.87-.33,1.25c-.22.37-.52.67-.89.89s-.78.33-1.23.33ZM120.88,40.09c.39,0,.73-.14,1-.42.27-.28.41-.61.41-.98s-.13-.72-.4-1c-.27-.28-.6-.42-1.01-.42s-.73.14-1,.42c-.27.28-.41.61-.41,1.01s.14.71.41.99c.27.28.61.42,1,.42Z"/>
          <path class="cls-3" d="M134.34,40.85v-.65c0-.56.09-1.12.27-1.67.18-.55.48-1.11.91-1.7.43-.59,1.01-1.23,1.74-1.93.36-.35.7-.7,1.03-1.04s.59-.69.79-1.04c.2-.34.31-.66.32-.96.01-.56-.11-.98-.37-1.26-.26-.28-.63-.41-1.12-.41s-.83.17-1.04.52c-.22.35-.32.84-.32,1.48h-2.14c0-1.28.33-2.28.98-2.99s1.5-1.06,2.53-1.06c.7,0,1.32.15,1.88.44.56.29,1,.72,1.31,1.28.32.56.46,1.24.44,2.06-.01.58-.14,1.1-.39,1.57-.25.47-.58.93-.99,1.38-.41.45-.89.93-1.43,1.45-.52.52-.97,1-1.38,1.46-.4.46-.64.83-.71,1.12h4.64v1.96h-6.95Z"/>
          <path class="cls-3" d="M146.88,41.03c-.98,0-1.75-.25-2.3-.74-.55-.49-.94-1.22-1.15-2.18-.22-.96-.32-2.15-.32-3.56s.11-2.62.32-3.58c.21-.96.6-1.69,1.15-2.18.55-.49,1.32-.74,2.3-.74s1.75.25,2.29.74c.54.49.92,1.22,1.14,2.18.22.96.33,2.15.33,3.58s-.11,2.6-.33,3.56c-.22.96-.6,1.69-1.14,2.18-.54.49-1.3.74-2.29.74ZM146.88,38.97c.41,0,.73-.13.96-.39.23-.26.4-.71.5-1.35.1-.64.15-1.54.15-2.69s-.05-2.05-.15-2.7c-.1-.65-.27-1.1-.5-1.36-.23-.26-.55-.39-.96-.39s-.73.13-.97.39c-.24.26-.41.71-.51,1.36-.1.65-.15,1.55-.15,2.7s.05,2.05.15,2.69c.1.64.27,1.09.51,1.35.24.26.56.39.97.39Z"/>
          <path class="cls-3" d="M156.28,41.03c-.98,0-1.75-.25-2.3-.74-.55-.49-.94-1.22-1.15-2.18-.22-.96-.32-2.15-.32-3.56s.11-2.62.32-3.58c.21-.96.6-1.69,1.15-2.18.55-.49,1.32-.74,2.3-.74s1.75.25,2.29.74c.54.49.92,1.22,1.14,2.18.22.96.33,2.15.33,3.58s-.11,2.6-.33,3.56c-.22.96-.6,1.69-1.14,2.18-.54.49-1.3.74-2.29.74ZM156.28,38.97c.41,0,.73-.13.96-.39.23-.26.4-.71.5-1.35.1-.64.15-1.54.15-2.69s-.05-2.05-.15-2.7c-.1-.65-.27-1.1-.5-1.36-.23-.26-.55-.39-.96-.39s-.73.13-.97.39c-.24.26-.41.71-.51,1.36-.1.65-.15,1.55-.15,2.7s.05,2.05.15,2.69c.1.64.27,1.09.51,1.35.24.26.56.39.97.39Z"/>
          <path class="cls-3" d="M165.67,41.03c-.98,0-1.75-.25-2.3-.74-.55-.49-.94-1.22-1.15-2.18s-.32-2.15-.32-3.56.11-2.62.32-3.58.6-1.69,1.15-2.18c.55-.49,1.32-.74,2.3-.74s1.75.25,2.29.74c.54.49.92,1.22,1.14,2.18s.33,2.15.33,3.58-.11,2.6-.33,3.56-.6,1.69-1.14,2.18c-.54.49-1.3.74-2.29.74ZM165.67,38.97c.41,0,.73-.13.96-.39.23-.26.4-.71.5-1.35s.15-1.54.15-2.69-.05-2.05-.15-2.7-.27-1.1-.5-1.36c-.23-.26-.55-.39-.96-.39s-.73.13-.97.39c-.24.26-.41.71-.51,1.36s-.15,1.55-.15,2.7.05,2.05.15,2.69.27,1.09.51,1.35c.24.26.56.39.97.39Z"/>
          <path class="cls-3" d="M180.02,41.29v-3.26h-7.01v-2.03h2.5v-3.33c-.14.15-.28.3-.41.45s-.28.29-.42.43c-.23-.25-.51-.49-.82-.74-.31-.25-.67-.47-1.06-.67.53-.48,1.05-1.04,1.54-1.67.49-.63.92-1.3,1.3-1.98.38-.69.66-1.34.84-1.96l2.21.69c-.06.19-.14.38-.22.58-.08.19-.16.38-.25.58h8.77v2.1h-4.51v1.54h3.26v2.03h-3.26v1.97h5.18v2.03h-5.18v3.26h-2.45ZM176.05,31.99h3.97v-1.54h-2.93c-.16.27-.33.53-.5.78-.18.26-.36.51-.54.75ZM177.94,35.99h2.08v-1.97h-2.08v1.97Z"/>
          <path class="cls-3" d="M189.67,40.63v-2.1h6.02v-2.58h-3.82v-2.13h3.82v-2.05h-3.04c-.29.49-.59.96-.9,1.4-.31.44-.6.82-.88,1.13-.15-.14-.35-.29-.59-.45-.25-.16-.5-.31-.75-.46s-.49-.25-.7-.31c.29-.29.61-.69.96-1.19.35-.51.69-1.06,1.02-1.66.33-.6.62-1.19.87-1.77.24-.58.42-1.09.51-1.51l2.26.74c-.07.3-.17.62-.3.96-.12.34-.26.69-.42,1.04h1.97v-2.99h2.48v2.99h5.07v2.08h-5.07v2.05h3.78v2.13h-3.78v2.58h5.57v2.1h-14.06Z"/>
          <path class="cls-3" d="M211.21,41.24c-1.15,0-2.06-.23-2.72-.7-.66-.47-.99-1.14-.99-2,0-.79.29-1.42.89-1.89.59-.47,1.47-.7,2.63-.7.2,0,.4,0,.6.02s.4.03.6.05l-.06-1.7c-.8.02-1.57.05-2.3.09-.74.04-1.37.07-1.9.1.02-.31.01-.68-.02-1.12-.04-.44-.08-.82-.14-1.15.41.04,1,.07,1.77.08.77.01,1.61.01,2.52,0l-.06-1.46c-.73.02-1.42.04-2.07.06-.66.02-1.2.04-1.64.06.01-.21.01-.46,0-.74,0-.28-.01-.56-.02-.84,0-.28-.03-.5-.06-.66.45.04,1,.08,1.65.1.65.02,1.33.03,2.05.02-.02-.53-.04-.98-.06-1.35s-.04-.62-.06-.76c.22.02.49.04.8.06.31.02.62.03.93.03.31,0,.58,0,.8,0-.01.2-.02.47-.02.8v1.15c.66-.03,1.28-.07,1.85-.11.57-.04,1.05-.08,1.45-.13-.01.19-.02.43-.02.71,0,.28,0,.56,0,.84s.01.51.02.69c-.37-.01-.83-.01-1.37,0-.54,0-1.11.01-1.72.02h-.16c0,.23.02.47.03.71.01.24.02.48.03.73.79-.02,1.52-.05,2.19-.1.67-.04,1.19-.09,1.55-.13-.02.3-.03.67-.03,1.11s.02.81.05,1.11c-.45-.02-.99-.03-1.63-.03s-1.32.01-2.05.03c.02.42.04.81.05,1.19.02.38.03.74.04,1.08.71.2,1.44.46,2.18.77.74.31,1.48.65,2.24,1.02-.2.27-.42.61-.66,1.04s-.42.82-.54,1.17c-.35-.29-.8-.58-1.35-.89-.55-.3-1.13-.58-1.75-.84-.04.77-.34,1.37-.9,1.8-.55.43-1.42.65-2.59.65ZM210.89,39.16c.59,0,.97-.06,1.16-.18.19-.12.27-.32.25-.61v-.37c-.27-.05-.52-.1-.76-.14-.24-.04-.47-.06-.68-.06-.49,0-.81.06-.95.18-.14.12-.22.28-.22.5,0,.45.4.67,1.2.67Z"/>
          <path class="cls-3" d="M225.4,41.27v-4.58c-.36.38-.71.76-1.05,1.14s-.63.74-.89,1.09c-.19-.3-.45-.59-.78-.89-.33-.29-.64-.52-.94-.7.38-.36.79-.79,1.23-1.29s.87-1.01,1.29-1.54c.42-.53.8-1.03,1.13-1.49v-1.17c-.33.04-.69.1-1.08.16s-.76.13-1.12.19-.65.12-.89.18c0-.29-.03-.65-.08-1.08s-.11-.8-.16-1.1c.35-.01.83-.04,1.44-.09.61-.05,1.24-.1,1.89-.17v-.74c0-.48,0-.86,0-1.14,0-.28-.02-.53-.03-.73s-.04-.42-.06-.64c.1,0,.26,0,.49.02.23.02.48.04.74.06.27.02.51.04.73.06.22.02.37.04.46.05-.03.2-.06.47-.08.79-.02.33-.03.75-.03,1.27v.75c.12-.02.23-.04.34-.05.11-.01.21-.02.3-.03.13.12.29.26.47.43.19.17.4.35.63.54.67-.51,1.29-.93,1.86-1.24.57-.31,1.04-.47,1.4-.47.49,0,.85.11,1.07.34s.34.62.34,1.18v6.83c0,.18.03.3.09.35.06.05.17.08.33.08.15,0,.32-.1.5-.3s.41-.57.66-1.11c.16.19.35.39.58.58.22.2.45.37.66.53s.39.26.5.33c-.32.7-.68,1.24-1.09,1.62-.41.37-.84.63-1.31.78-.47.14-.96.22-1.47.22-.55,0-.97-.12-1.26-.37s-.42-.65-.42-1.2v-6.7c0-.19-.02-.31-.05-.34-.03-.04-.12-.06-.27-.06-.06,0-.29.13-.66.39-.38.26-.85.62-1.41,1.06-.56.45-1.16.96-1.8,1.52v6.66h-2.21Z"/>
          <path class="cls-3" d="M241.48,41.09c-.22-.36-.5-.74-.82-1.13s-.67-.76-1.04-1.12c-.37-.36-.73-.65-1.08-.89l1.49-1.34c.25.16.51.36.81.61.29.25.59.51.9.79.3.28.58.56.84.82.26.27.46.5.62.7l-1.71,1.55Z"/>
          <path class="cls-3" d="M251.27,41.33c-.33-.25-.69-.46-1.06-.65-.38-.19-.74-.34-1.08-.46.59-.82,1-1.79,1.23-2.91s.35-2.34.35-3.66v-5.07h5.34v-2.02h2.5v2.02h5.36v2.02h-10.91v3.06c0,1.57-.15,2.97-.44,4.21-.29,1.24-.72,2.39-1.29,3.47ZM262.25,41.24c-.1-.25-.21-.51-.34-.79-.13-.28-.27-.57-.42-.87-.58.13-1.25.26-2.01.41s-1.55.29-2.36.42-1.58.26-2.3.37c-.73.11-1.34.19-1.86.24l-.43-2.29c.22-.01.5-.03.82-.06.32-.03.67-.06,1.06-.1.16-.39.33-.85.52-1.38.19-.52.37-1.07.55-1.65.18-.58.35-1.14.52-1.7.16-.56.31-1.08.43-1.55s.22-.86.28-1.16l2.37.51c-.09.36-.21.81-.38,1.35-.17.54-.35,1.12-.56,1.74s-.42,1.25-.65,1.86c-.22.62-.44,1.18-.66,1.7.67-.09,1.33-.18,1.98-.27.65-.1,1.23-.19,1.73-.27-.26-.47-.52-.92-.8-1.35s-.55-.82-.83-1.16l1.86-1.12c.32.39.66.85,1.02,1.36.36.51.71,1.05,1.04,1.6s.64,1.1.91,1.62c.27.53.49,1,.66,1.42-.2.08-.44.19-.71.32s-.54.26-.8.4c-.26.14-.48.27-.65.4Z"/>
          <path class="cls-3" d="M275.7,41.49c-.03-.32-.09-.69-.18-1.12v.11h-9.31v-2.78h2.29v1.04h1.18v-1.38h-1.89v-9.57h3.18c.07-.25.15-.5.22-.75s.12-.46.15-.62l2.67.19c-.04.17-.09.37-.15.58-.06.22-.12.42-.18.6h4.3v5.44h-7.68v.51h10.11v1.49h-10.11v.5h9.58c-.01.36-.03.77-.06,1.22-.03.45-.06.89-.11,1.34-.05.44-.11.85-.2,1.22-.12.53-.3.94-.54,1.23-.24.29-.55.49-.94.59-.39.11-.88.16-1.46.16h-.88ZM270.31,29.86h5.2v-.5h-5.2v.5ZM270.31,31.77h5.2v-.5h-5.2v.5ZM275.53,39.13h.58c.37,0,.63-.04.78-.12.14-.08.24-.25.3-.52.04-.21.08-.43.11-.66.03-.23.05-.38.06-.46h-5.25v1.38h1.15v-1.02h2.27v1.41Z"/>
          <path class="cls-3" d="M288.37,41.38v-4.38h-2.11l1.6,1.26c-.23.31-.56.65-.98,1.03-.42.38-.86.74-1.33,1.07-.47.34-.9.61-1.3.81-.11-.18-.26-.38-.45-.61s-.39-.44-.6-.65c-.21-.21-.4-.38-.58-.52.34-.14.73-.35,1.16-.62.43-.28.85-.58,1.24-.9s.71-.61.93-.88h-3.21v-9.3h2.26v7.39h11.78v1.9h-3.6c.23.27.55.56.94.88.39.32.8.62,1.23.9s.82.49,1.16.62c-.17.14-.36.31-.58.52-.21.21-.41.42-.6.65-.19.22-.34.43-.46.61-.39-.2-.83-.47-1.29-.81-.47-.34-.91-.69-1.32-1.07-.41-.38-.73-.72-.97-1.03l1.58-1.26h-2.1v4.38h-2.4ZM285.91,34.5v-7.73h9.2v7.73h-9.2ZM288.25,28.97h4.53v-.62h-4.53v.62ZM288.25,30.92h4.53v-.61h-4.53v.61ZM288.25,32.93h4.53v-.67h-4.53v.67Z"/>
          <path class="cls-3" d="M299.05,40.69v-5.87h2.45v3.57h3.07v-4.27h-5.01v-6.11h2.53v3.86h2.48v-5.04h2.48v5.04h2.45v-3.86h2.54v6.11h-4.99v4.27h3.09v-3.57h2.45v5.87h-13.54Z"/>
          <path class="cls-3" d="M315.72,41.57c-.07-.31-.21-.66-.4-1.05-.19-.39-.4-.73-.62-1.02,1.29-.28,2.58-.68,3.88-1.21,1.3-.53,2.53-1.17,3.7-1.91-.62.07-1.26.15-1.92.24-.66.09-1.3.16-1.91.23-.61.07-1.16.13-1.64.18-.48.05-.84.09-1.09.11l-.43-2.08c.28-.01.64-.03,1.09-.05.45-.02.94-.05,1.47-.08v-6.98h2.48c.1-.28.19-.57.29-.89.1-.31.17-.56.21-.74l2.58.19c-.08.21-.16.46-.26.74-.1.28-.18.51-.26.7h3.84v4.51c.26-.31.5-.63.72-.96s.43-.67.61-1.02l1.97,1.26c-.47.75-.98,1.45-1.54,2.11-.55.66-1.14,1.27-1.76,1.84v3.82c0,.67-.18,1.16-.55,1.46-.37.3-.94.45-1.72.45h-1.22c-.02-.21-.06-.47-.1-.76-.05-.29-.11-.58-.18-.86-.07-.28-.15-.51-.23-.68h1.04c.22,0,.38-.03.48-.1.1-.07.14-.21.14-.42v-1.02c-1.32.92-2.72,1.7-4.19,2.35s-2.96,1.19-4.48,1.63ZM320.26,30.39h4.13v-.59h-4.13v.59ZM320.26,32.45h4.13v-.59h-4.13v.59ZM320.26,34.79c.79-.05,1.55-.11,2.29-.16.74-.05,1.35-.1,1.84-.14v-.56h-4.13v.86Z"/>
          <path class="cls-3" d="M333.77,41.13c-.44,0-.84-.11-1.22-.33-.37-.22-.67-.51-.89-.89-.22-.37-.33-.79-.33-1.25s.11-.86.33-1.22c.22-.37.51-.66.88-.88.37-.22.78-.33,1.22-.33s.87.11,1.24.33c.37.22.66.51.88.88.22.37.33.78.33,1.22s-.11.87-.33,1.25c-.22.37-.51.67-.89.89-.37.22-.79.33-1.23.33ZM333.77,40.09c.39,0,.73-.14,1-.42s.41-.61.41-.98-.13-.72-.4-1c-.27-.28-.6-.42-1.01-.42s-.73.14-1,.42-.41.61-.41,1.01.14.71.41.99.61.42,1,.42Z"/>
        </g>
        <g>
          <path class="cls-3" d="M50.19,62.09l-2.43-11.2h2.14l1.41,7.46,1.89-7.46h1.86l1.89,7.46,1.41-7.46h2.16l-2.43,11.2h-1.9l-2.05-7.98-2.05,7.98h-1.89Z"/>
          <path class="cls-3" d="M65.44,62.26c-1.13,0-2.05-.33-2.75-1-.71-.67-1.06-1.68-1.06-3.03,0-.84.16-1.57.47-2.17.31-.6.75-1.07,1.3-1.39.55-.33,1.19-.49,1.92-.49s1.34.17,1.85.52.89.82,1.16,1.43.4,1.31.4,2.1v.43h-5.12c.05.71.25,1.2.58,1.46s.76.39,1.27.39c.47,0,.85-.11,1.15-.34.3-.22.57-.56.8-1.01l1.47,1.04c-.42.74-.91,1.26-1.48,1.58-.57.31-1.23.47-1.98.47ZM63.69,57.13h3.06c-.19-.92-.68-1.38-1.46-1.38-.43,0-.77.11-1.04.32s-.45.57-.56,1.06Z"/>
          <path class="cls-3" d="M74.53,62.26c-.8,0-1.47-.3-2.02-.91l-.1.74h-1.74v-11.38h2.02v4.19c.53-.48,1.15-.72,1.84-.72s1.37.16,1.94.47c.57.31,1.01.77,1.34,1.38.33.6.49,1.34.49,2.2s-.16,1.58-.49,2.18c-.33.6-.77,1.06-1.34,1.38s-1.21.47-1.94.47ZM74.45,60.44c.51,0,.94-.19,1.29-.57.35-.38.52-.93.52-1.64s-.17-1.28-.52-1.66c-.35-.38-.78-.57-1.29-.57s-.94.19-1.28.57c-.34.38-.51.93-.51,1.66s.17,1.26.51,1.64c.34.38.77.57,1.28.57Z"/>
          <path class="cls-3" d="M84.41,57.96c-.35,0-.68-.09-.98-.26-.3-.18-.54-.41-.71-.71-.18-.3-.26-.62-.26-.98s.09-.69.26-.98.41-.53.71-.7c.3-.18.62-.26.98-.26s.69.09.98.26c.29.18.53.41.71.7s.26.62.26.98-.09.68-.26.98c-.18.3-.41.54-.71.71-.29.18-.62.26-.98.26Z"/>
          <path class="cls-3" d="M95.02,62.9c-.12-.14-.31-.33-.57-.57-.26-.24-.54-.48-.82-.72-.29-.24-.54-.43-.75-.57,1.19-.48,2.29-1.11,3.3-1.88s1.88-1.63,2.64-2.56c.76-.93,1.37-1.87,1.82-2.81h-3.55c-.55.77-1.14,1.49-1.77,2.16-.62.67-1.23,1.26-1.83,1.76-.29-.26-.61-.52-.97-.81s-.68-.51-.97-.7c.52-.36,1.06-.82,1.61-1.37.55-.55,1.08-1.14,1.59-1.78.51-.64.97-1.29,1.38-1.96.4-.67.72-1.3.96-1.9.21.09.46.18.74.29.28.11.56.2.84.29.28.09.53.15.73.21-.27.58-.58,1.16-.94,1.76.44,0,.89,0,1.37,0,.47,0,.93-.01,1.38-.02s.83-.02,1.17-.03c.34-.02.58-.04.74-.07.08.07.18.18.32.3.14.13.27.25.41.37.13.12.22.2.26.26-.15.19-.34.49-.56.88-.22.39-.44.83-.66,1.3-.38.81-.86,1.62-1.42,2.42-.57.81-1.2,1.57-1.9,2.29-.7.72-1.43,1.38-2.2,1.97-.77.59-1.55,1.09-2.34,1.5ZM104.81,52.37l-1.84-1.92.88-.82,1.84,1.92-.88.82ZM106.22,51.05l-1.84-1.92.9-.82,1.84,1.92-.9.82Z"/>
          <path class="cls-3" d="M111.95,63c-.1-.16-.23-.36-.42-.59-.18-.23-.37-.48-.57-.73-.2-.25-.39-.47-.57-.65,1.04-.32,1.98-.75,2.85-1.3s1.62-1.19,2.26-1.91c.64-.73,1.14-1.51,1.49-2.35h-.9c-.42,0-.9,0-1.44,0-.54,0-1.11,0-1.7,0s-1.15,0-1.7.02-1.03.02-1.46.04c-.42.02-.73.03-.94.06,0-.15,0-.38,0-.7-.01-.31-.02-.64-.04-.97-.02-.33-.03-.58-.04-.75.23.01.62.02,1.14.04s1.14.03,1.84.04c.7.01,1.43.02,2.18.02s1.49,0,2.19-.02c.71-.01,1.32-.03,1.86-.06.53-.03.92-.06,1.17-.1.15.13.34.29.57.5.23.2.42.38.58.53-.1.16-.22.41-.38.75-.16.34-.31.67-.46.99-.48,1.05-1.07,2.03-1.78,2.96-.71.93-1.54,1.75-2.5,2.46-.96.71-2.04,1.29-3.26,1.71ZM110.03,51.91c0-.2.02-.45.02-.73s0-.57,0-.86c0-.29-.02-.55-.04-.78.19.01.52.02.98.04s1,.03,1.62.03c.62,0,1.26,0,1.93,0s1.31,0,1.92,0c.61,0,1.14-.02,1.59-.03.45-.02.76-.03.93-.06v.05c-.01.19-.02.43-.02.7,0,.28,0,.56,0,.86s0,.55.02.78c-.21-.01-.55-.02-1.02-.03-.47-.01-1.01-.02-1.62-.02-.61,0-1.24,0-1.89,0s-1.27,0-1.87,0-1.12.01-1.56.02c-.44.01-.76.02-.95.03Z"/>
          <path class="cls-3" d="M127.77,62.63c-.15-.18-.35-.39-.59-.62s-.49-.46-.74-.69c-.25-.22-.47-.39-.65-.51,1.43-.51,2.64-1.18,3.65-1.99,1-.82,1.83-1.73,2.47-2.74.65-1.01,1.14-2.08,1.5-3.2-.16,0-.44,0-.83,0s-.86.01-1.4.02c-.54.01-1.11.02-1.7.03s-1.18.02-1.75.04c-.57.02-1.08.03-1.53.05-.45.02-.79.03-1.04.04.01-.21.01-.47,0-.78,0-.31-.02-.62-.04-.92-.02-.3-.03-.56-.04-.76.36.04.83.07,1.42.1.58.02,1.22.03,1.93.04.71,0,1.42,0,2.16,0,.74-.01,1.44-.02,2.1-.04s1.26-.04,1.77-.06c.51-.03.9-.05,1.15-.07.11.07.24.17.38.3.15.12.3.24.45.35.15.11.26.21.34.28-.11.16-.21.37-.3.62-.1.25-.23.57-.42.97-.51,1.55-1.14,2.91-1.89,4.1-.75,1.19-1.64,2.23-2.69,3.13s-2.28,1.67-3.7,2.34Z"/>
          <path class="cls-3" d="M144,63.25c.01-.13.02-.39.02-.78,0-.39,0-.86.02-1.41,0-.54,0-1.11.02-1.71s0-1.17,0-1.71c-.54.41-1.07.78-1.59,1.13s-1,.64-1.45.89c-.1-.12-.25-.27-.46-.47s-.43-.39-.64-.58c-.21-.19-.38-.34-.51-.43.59-.27,1.22-.62,1.9-1.06.68-.44,1.36-.92,2.04-1.44.68-.52,1.3-1.04,1.87-1.56s1.03-1,1.38-1.42c.13.11.3.24.52.4.22.16.44.32.66.47.22.15.41.27.54.36-.33.35-.69.71-1.08,1.08-.39.37-.8.73-1.22,1.1,0,.45,0,.96.02,1.54.01.58.02,1.18.03,1.78s.02,1.18.03,1.72c0,.54.02,1,.02,1.38,0,.38,0,.63,0,.74h-2.14Z"/>
          <path class="cls-3" d="M153.92,57.48c-.05-.29-.13-.61-.23-.98-.1-.36-.22-.73-.34-1.1-.13-.37-.27-.71-.42-1.02.31-.06.65-.15,1.03-.27s.7-.21.97-.29c.12.22.24.53.36.92.12.39.23.79.34,1.22.1.42.18.79.23,1.1-.3.07-.63.14-.99.21-.36.06-.68.14-.94.22ZM156.4,63.05c-.11-.15-.26-.32-.45-.52-.19-.2-.39-.39-.61-.58-.21-.19-.4-.34-.56-.46,1.69-.55,2.95-1.34,3.78-2.37.84-1.02,1.36-2.34,1.58-3.95.04-.32.08-.64.12-.95.04-.31.06-.55.07-.71.19.04.43.09.72.14.29.05.57.1.85.14.28.04.5.07.66.09-.04.15-.1.34-.16.58-.06.24-.12.52-.18.84-.26,1.4-.64,2.58-1.14,3.56s-1.15,1.8-1.93,2.46c-.78.67-1.7,1.24-2.75,1.72ZM156.93,56.87c-.04-.5-.12-1.04-.23-1.61-.11-.57-.25-1.08-.42-1.53.18-.02.4-.06.66-.11.26-.05.51-.11.77-.16.26-.05.47-.1.64-.13.11.26.2.58.29.96.08.38.16.77.22,1.17s.1.74.12,1.04c-.17.02-.38.06-.63.1s-.5.1-.75.14-.47.09-.65.12Z"/>
          <path class="cls-3" d="M171.26,62.89c-.12-.14-.31-.33-.57-.57-.26-.24-.54-.48-.83-.72-.29-.24-.55-.43-.76-.57,1.19-.48,2.29-1.11,3.29-1.88,1-.77,1.89-1.63,2.65-2.56.76-.93,1.37-1.87,1.82-2.81h-3.54c-.55.76-1.14,1.48-1.77,2.15s-1.23,1.27-1.83,1.77c-.29-.26-.61-.53-.97-.81s-.68-.51-.97-.7c.52-.36,1.06-.82,1.61-1.37.55-.55,1.08-1.15,1.58-1.79.51-.65.96-1.3,1.37-1.96.41-.66.73-1.29.96-1.89.21.09.46.18.74.28.28.1.56.2.84.29.28.09.52.16.72.22-.13.29-.27.58-.42.87-.16.29-.32.59-.5.89.44,0,.89,0,1.37,0s.93-.01,1.37-.02c.44-.01.83-.02,1.17-.04.34-.02.59-.04.75-.07.08.07.18.18.31.31.13.13.27.26.4.38.13.12.23.2.28.26-.15.19-.34.49-.57.88s-.45.82-.66,1.28c-.38.81-.86,1.62-1.42,2.42-.57.81-1.19,1.57-1.89,2.3s-1.42,1.38-2.19,1.98c-.77.59-1.55,1.09-2.34,1.5Z"/>
          <path class="cls-3" d="M187.69,63.01c-.16-.18-.37-.37-.64-.58s-.54-.39-.82-.58c-.28-.18-.53-.33-.74-.43.73-.41,1.36-.92,1.9-1.54s.98-1.31,1.32-2.06.54-1.53.62-2.33c-.75.01-1.46.03-2.14.05s-1.3.05-1.84.07c-.54.03-.98.06-1.3.09.02-.36.03-.77.02-1.21-.01-.44-.03-.84-.06-1.19.37.02.89.04,1.54.05.65.01,1.38.02,2.19.02s1.65,0,2.53-.02c.88-.02,1.73-.03,2.58-.06.84-.02,1.62-.05,2.32-.08.7-.03,1.28-.06,1.73-.1-.02.33-.03.72-.03,1.16s.01.85.03,1.21c-.3-.02-.7-.03-1.21-.04-.51,0-1.08,0-1.73,0s-1.33,0-2.04.02c-.09,1.5-.47,2.9-1.16,4.18-.69,1.28-1.7,2.41-3.05,3.39ZM186,51.99c.01-.2.02-.44.02-.72s0-.55-.02-.83c0-.16,0-.31,0-.45,0-.14,0-.27,0-.4.43.03.94.05,1.54.06.6.01,1.24.01,1.92,0,.68,0,1.35-.02,2.02-.03.67-.02,1.28-.04,1.85-.06.57-.03,1.03-.06,1.39-.09-.01.35-.02.76-.02,1.23s.02.86.05,1.17c-.41-.02-.91-.04-1.51-.05s-1.25-.01-1.95,0c-.7,0-1.39.02-2.06.03-.68.02-1.3.03-1.86.06s-1.01.05-1.34.08ZM196.56,52.42l-1.52-2.18,1.01-.67,1.52,2.18-1.01.67ZM198.17,51.38l-1.52-2.18,1.01-.67,1.52,2.18-1.01.67Z"/>
          <path class="cls-3" d="M206.16,63.05c-.15-.19-.34-.41-.56-.66-.22-.25-.46-.48-.7-.7-.24-.22-.46-.4-.66-.53.69-.31,1.28-.64,1.74-.98.47-.35.85-.75,1.14-1.22.29-.46.5-1.02.64-1.66.14-.65.23-1.42.27-2.31-.42.01-.84.02-1.26.02-.43,0-.85.01-1.26.02.01.59.02,1.15.02,1.68,0,.53.01.99.02,1.37.01.38.02.64.02.78-.37-.01-.79,0-1.26,0-.46.02-.88.04-1.26.07.01-.33.01-.82,0-1.48,0-.66-.01-1.37-.02-2.15v-.21c-.69.01-1.31.03-1.85.06-.54.03-.95.06-1.22.09.01-.41.01-.85,0-1.34s-.02-.91-.06-1.26c.36.03.81.06,1.34.07.53.02,1.11.03,1.75.04-.01-.75-.03-1.41-.05-1.99s-.04-.97-.06-1.18c.22.01.51.02.85.04.34.02.67.02,1,.02h.76c-.01.17-.02.54-.02,1.12,0,.58,0,1.24,0,2,.43,0,.85,0,1.28,0,.43,0,.85,0,1.28,0,0-.58-.01-1.11-.03-1.6-.02-.49-.04-.91-.06-1.25s-.04-.57-.06-.67c.19,0,.46,0,.79.02.34.01.67.02,1.01.02.34,0,.6,0,.79,0v3.41c.63-.02,1.22-.05,1.76-.08.54-.03,1.03-.06,1.44-.1,0,.2,0,.46,0,.78,0,.31,0,.63,0,.94,0,.31,0,.57,0,.78-.33-.02-.78-.03-1.34-.03h-1.89c-.04,1.13-.15,2.1-.31,2.91s-.41,1.51-.74,2.11c-.33.6-.76,1.14-1.29,1.62-.53.49-1.18.96-1.94,1.43ZM212.64,52.12l-1.78-1.97.91-.8,1.78,1.97-.91.8ZM214.11,50.84l-1.79-1.98.91-.78,1.78,1.97-.9.8Z"/>
          <path class="cls-3" d="M222.86,62.79c0-.17.02-.51.03-1.03.01-.52.02-1.14.02-1.86,0-.72.01-1.47.02-2.26,0-.79.02-1.54.02-2.26-.71.52-1.42,1.01-2.12,1.46-.7.45-1.37.83-2.01,1.14-.13-.15-.32-.34-.58-.58-.26-.24-.52-.47-.78-.7s-.49-.41-.66-.54c.89-.38,1.78-.86,2.7-1.42s1.79-1.18,2.65-1.83c.85-.66,1.64-1.32,2.36-1.98s1.33-1.29,1.83-1.88c.17.14.39.31.66.5s.54.39.81.57c.27.18.5.33.7.45-.46.48-.96.97-1.5,1.46-.54.5-1.09.98-1.66,1.46,0,.6.02,1.27.03,2.03.01.76.02,1.53.03,2.32s.02,1.53.04,2.23.03,1.29.04,1.78.02.8.02.95h-2.66Z"/>
          <path class="cls-3" d="M237.01,54.98c-.19-.2-.44-.44-.74-.71s-.63-.55-.98-.83c-.35-.28-.69-.55-1.02-.8-.34-.25-.64-.46-.9-.62.18-.17.4-.38.65-.63.25-.25.49-.5.71-.74.22-.25.38-.43.48-.54.24.15.54.35.89.61.35.26.7.53,1.06.83.36.3.7.58,1,.86.3.27.54.5.7.68-.16.14-.35.33-.58.56-.22.23-.45.47-.68.71-.23.24-.42.45-.58.63ZM235.02,61.97c-.1-.19-.24-.45-.42-.76-.19-.31-.38-.62-.58-.93-.2-.3-.37-.53-.5-.68,1.06-.21,2.13-.54,3.22-.99,1.09-.45,2.17-.99,3.22-1.62s2.05-1.33,3-2.1,1.81-1.58,2.59-2.43c.03.16.08.37.15.62.07.26.14.52.22.79.08.27.15.52.22.73.07.21.12.36.17.45-.67.71-1.44,1.42-2.3,2.11-.86.69-1.78,1.35-2.77,1.96-.99.61-2,1.16-3.05,1.65-1.05.49-2.11.88-3.18,1.19Z"/>
          <path class="cls-3" d="M256.65,62.79c-.16-.32-.38-.69-.66-1.11-.28-.42-.58-.77-.89-1.03,1.31-.22,2.36-.57,3.15-1.03.79-.46,1.36-1.01,1.71-1.63s.53-1.28.53-1.98c0-1.07-.3-1.98-.91-2.74-.61-.76-1.47-1.25-2.59-1.46-.13,1.34-.34,2.61-.65,3.79s-.67,2.22-1.1,3.12-.89,1.6-1.4,2.11c-.51.51-1.03.77-1.58.77-.46,0-.91-.13-1.34-.38-.44-.26-.83-.62-1.19-1.08s-.64-1.02-.85-1.66c-.21-.64-.31-1.34-.31-2.11,0-.9.17-1.75.5-2.55.33-.81.82-1.52,1.46-2.14.64-.62,1.42-1.12,2.34-1.48.92-.36,1.97-.54,3.14-.54s2.14.18,3.01.54c.86.36,1.59.84,2.18,1.45.59.61,1.03,1.29,1.33,2.05.3.76.45,1.54.45,2.34,0,1.71-.54,3.14-1.62,4.3-1.08,1.16-2.65,1.99-4.7,2.49ZM252.11,58.87c.15,0,.34-.17.58-.52.23-.35.48-.84.73-1.47.25-.63.49-1.38.71-2.25.22-.86.4-1.81.53-2.85-.83.15-1.53.45-2.09.91-.56.46-.98,1-1.26,1.63s-.42,1.29-.42,1.97c0,.77.12,1.39.37,1.86.25.48.53.71.85.71Z"/>
        </g>
        <g>
          <path class="cls-3" d="M50,85.07c-.05-.21-.14-.46-.26-.73s-.24-.54-.38-.8-.26-.47-.39-.62c1.13-.15,2.11-.38,2.94-.69.83-.31,1.5-.74,2.02-1.3h-4.77v-1.9h5.78c.02-.09.04-.18.06-.27.02-.1.04-.19.05-.29h-3.76v-1.84h3.84v-.59h-3.84v-.51h-1.94v-3.95h5.68v-1.28h2.59v1.28h5.7v3.86h-1.87v.61h-3.94v.59h3.94v1.84h-4.02c-.02.2-.05.39-.1.56h6.26v1.9h-4.88c.55.51,1.27.93,2.14,1.26.87.33,1.85.55,2.93.68-.14.16-.29.37-.46.64-.17.27-.32.54-.46.82-.14.28-.24.52-.3.74-1.42-.27-2.65-.7-3.7-1.31-1.05-.61-1.88-1.38-2.5-2.32-1.21,1.82-3.33,3.03-6.38,3.63ZM51.63,74.21h3.5v-.8h-3.5v.8ZM57.52,74.21h3.57v-.8h-3.57v.8Z"/>
          <path class="cls-3" d="M66.69,85.03c-.01-.19-.04-.42-.09-.7-.05-.27-.1-.54-.16-.8s-.13-.47-.2-.63h.93c.2,0,.35-.03.43-.08s.13-.18.13-.38v-1.87c-.23.3-.47.58-.71.86-.24.27-.48.51-.71.71-.21-.27-.47-.53-.76-.78-.29-.25-.58-.45-.86-.58.35-.28.71-.63,1.09-1.06s.73-.87,1.06-1.34c.33-.47.6-.9.8-1.3h-2.24v-1.89h2.85c-.36-.23-.72-.45-1.07-.64-.35-.19-.63-.34-.85-.45l1.04-1.63c.18.07.38.17.58.27.21.11.42.22.65.35.1-.13.2-.26.3-.4.11-.14.18-.25.22-.32h-3.44v-1.68h5.92l.67.69c-.27.43-.59.88-.97,1.37-.38.49-.74.93-1.08,1.32.1.06.19.13.29.18.1.06.18.11.26.17-.08.09-.16.2-.26.34-.1.14-.19.28-.29.43h1.84l.85.58c-.03.1-.07.22-.13.38-.05.16-.12.34-.21.54.71-.18,1.36-.46,1.92-.85-.17-.22-.34-.46-.5-.71s-.31-.51-.45-.78c-.14.16-.28.31-.41.46-.13.14-.27.27-.41.39-.21-.19-.48-.39-.79-.59s-.61-.36-.89-.46c.25-.21.51-.49.79-.83s.55-.71.81-1.1.48-.78.67-1.14c.19-.37.32-.68.38-.94l2.06.51c-.05.14-.11.29-.18.44s-.13.31-.21.46h4.54v1.73h-.94c-.18.45-.39.88-.62,1.29-.24.41-.5.8-.79,1.18.41.23.85.43,1.32.58s.97.28,1.48.38c-.22.23-.42.53-.6.9-.18.36-.32.7-.44,1.01-.65-.13-1.26-.3-1.82-.52-.56-.22-1.08-.49-1.54-.82-.11.07-.22.15-.35.23-.13.08-.26.16-.38.25l1.28.1c-.02.2-.05.41-.08.61-.03.2-.06.4-.1.59h3.18c-.01.47-.04.96-.08,1.48-.04.52-.1,1.01-.16,1.46-.06.46-.13.85-.21,1.17-.17.71-.46,1.2-.87,1.46-.41.26-.98.39-1.72.39h-.91c0-.19-.04-.43-.09-.71-.05-.28-.1-.56-.16-.83s-.12-.49-.2-.65h.88c.37,0,.62-.04.74-.12.12-.08.21-.25.26-.5.05-.19.1-.41.14-.64.04-.23.07-.43.09-.59h-1.42c-.33.91-.82,1.7-1.48,2.38-.66.68-1.56,1.24-2.71,1.69-.14-.29-.33-.61-.56-.95-.23-.35-.47-.63-.72-.86,1.47-.43,2.52-1.18,3.15-2.26h-1.92v-1.7c-.11.25-.19.42-.24.51-.2-.12-.44-.23-.7-.34-.27-.11-.52-.2-.77-.27v4.19c0,.59-.17,1.01-.52,1.28-.35.27-.87.4-1.56.4h-1.1ZM69.87,78.37c.12-.27.23-.53.34-.79.11-.26.17-.43.19-.5h-.53v1.3ZM71.66,79.03h2.5c.02-.13.04-.26.06-.39s.03-.27.04-.41c-.22.1-.46.18-.7.26s-.49.16-.74.25c-.07-.2-.16-.4-.25-.6-.09-.2-.2-.4-.31-.6-.1.27-.2.53-.3.78-.11.26-.2.49-.29.7ZM75.97,74.42c.28-.35.5-.74.67-1.15h-1.44c.22.43.48.81.77,1.15Z"/>
          <path class="cls-3" d="M83.95,84.96v-5.02c-.04.36-.12.77-.22,1.21-.11.44-.22.87-.34,1.28-.12.41-.24.74-.36,1-.27-.12-.57-.22-.9-.31-.33-.09-.63-.16-.91-.2.15-.29.29-.64.44-1.06.14-.42.27-.86.38-1.32.11-.46.18-.87.22-1.25l1.7.35v-.98c-.38.05-.76.1-1.12.15-.36.05-.68.09-.96.12l-.27-2.03c.12,0,.25,0,.38,0,.14,0,.28,0,.43,0,.35-.35.74-.82,1.17-1.39-.33-.25-.69-.5-1.06-.77-.38-.27-.75-.5-1.13-.7l1.09-1.65c.06.03.13.07.19.1.06.04.13.08.21.14.15-.23.3-.5.46-.79s.3-.58.44-.86c.14-.28.25-.52.32-.71l1.87.78c-.25.43-.51.87-.79,1.34-.28.46-.55.88-.79,1.24.07.04.14.09.21.13.06.04.12.09.18.14.28-.41.53-.79.75-1.15.22-.36.41-.67.54-.91l1.78.91c-.22.35-.5.76-.82,1.22-.32.46-.66.94-1.02,1.42-.36.48-.71.93-1.06,1.36.38-.03.75-.06,1.1-.1-.1-.3-.19-.54-.27-.74l1.78-.59c.07.16.15.34.23.54s.16.42.23.64c.46-.15.9-.33,1.32-.55.42-.22.81-.45,1.18-.7-.56-.7-1.05-1.58-1.47-2.64h-1.09v-1.82h7.39l.67.69c-.33.73-.69,1.4-1.09,2.03s-.83,1.21-1.29,1.74c.82.49,1.75.84,2.8,1.06-.13.14-.27.32-.42.54-.15.22-.29.46-.41.7-.12.25-.22.46-.28.66-.64-.18-1.23-.39-1.78-.64-.54-.25-1.05-.53-1.52-.86-.87.67-1.86,1.21-2.96,1.6-.11-.25-.25-.52-.43-.83-.18-.31-.37-.58-.58-.82.12.33.23.66.33,1,.1.34.18.62.23.86-.28.07-.6.17-.95.3s-.67.24-.94.36c-.01-.12-.04-.25-.07-.41-.04-.15-.08-.32-.14-.49l-.48.08v6.62h-2.1ZM86.94,82.74c-.05-.21-.13-.51-.23-.89-.1-.38-.2-.78-.3-1.19s-.18-.78-.24-1.09l1.81-.48c.05.25.13.55.23.92.1.37.21.73.33,1.09.12.36.21.65.29.89-.32.07-.64.18-.98.31s-.63.28-.91.44ZM87.57,84.64v-2h3.36v-1.55h-2.22v-1.97h2.22v-1.47h2.26v1.47h2.59v1.97h-2.59v1.55h3.25v2h-8.86ZM92.05,73.92c.2-.21.39-.43.55-.66.17-.22.31-.45.42-.67h-1.89c.13.25.27.48.42.7s.32.43.49.63Z"/>
          <path class="cls-3" d="M97.69,82.96c.02-.23.03-.51.03-.84s0-.65,0-.98c0-.33-.02-.61-.06-.85l1.18-.16c.03.22.06.5.07.82.02.33.03.66.04.99s.02.64.02.9c-.19,0-.4,0-.63.02-.23.02-.45.05-.65.09ZM105.28,85.11c-.11-.25-.27-.54-.5-.88-.23-.34-.47-.62-.71-.83-.15.56-.4.97-.74,1.21-.35.24-.86.36-1.53.36h-.8c-.01-.17-.04-.38-.08-.62-.04-.24-.09-.47-.14-.7-.05-.23-.11-.41-.18-.55h.83c.27,0,.47-.04.6-.12.13-.08.24-.27.33-.58.02-.06.04-.14.06-.23.02-.09.03-.19.04-.3-.11.02-.21.05-.3.07-.09.03-.16.05-.22.07-.03-.31-.09-.68-.18-1.1s-.18-.78-.28-1.07l.86-.22c.06.17.13.39.19.67.01-.17.02-.33.02-.48v-.42h-4.21v-8.67h6.22v1.7h-1.9v.64h1.25v.69c.49-.26.98-.59,1.46-1,.48-.41.91-.84,1.3-1.3.38-.45.67-.87.85-1.26l1.55.3c.28.34.64.69,1.1,1.05s.96.69,1.51,1.01c.55.31,1.1.57,1.64.78-.26.26-.5.56-.72.91-.22.35-.39.67-.5.94-.14-.06-.28-.14-.43-.22-.15-.08-.3-.16-.46-.25v1.23h-1.68v.7h2.8v4.24h-2.43c.32.55.79,1.03,1.42,1.43.62.4,1.27.72,1.94.97-.16.14-.33.32-.5.54-.17.22-.33.45-.46.68-.14.23-.25.43-.32.6-.66-.31-1.3-.68-1.9-1.11-.61-.43-1.12-.96-1.52-1.58-.36.62-.83,1.14-1.41,1.58-.58.43-1.2.8-1.86,1.11ZM99.26,82.59c0-.19,0-.44-.03-.75-.02-.31-.05-.62-.08-.92-.03-.3-.06-.53-.1-.68l1.02-.14c.03.2.07.45.1.73.04.28.07.57.1.85s.05.53.06.74c-.12.01-.29.04-.52.08s-.42.07-.57.1ZM100.16,73.04h.78v-.64h-.78v.64ZM100.16,75.36h.78v-.64h-.78v.64ZM100.16,77.75h.78v-.72h-.78v.72ZM100.64,82.31c-.01-.2-.04-.45-.07-.74s-.08-.57-.12-.85c-.04-.28-.09-.5-.14-.66l.94-.19c.05.19.11.43.16.7.05.28.1.55.14.82.04.27.07.5.08.7-.05.01-.15.03-.29.06-.14.03-.27.05-.41.08-.13.03-.23.05-.29.07ZM104.06,83.38c.69-.25,1.32-.58,1.88-.99s.97-.92,1.24-1.5h-2.4v-4.24h2.69v-.7h-1.7v-1.04c-.15.11-.3.21-.44.3-.14.09-.28.17-.41.25-.11-.17-.25-.37-.44-.6-.19-.23-.38-.44-.58-.63v.51h-1.25v.64h1.25v1.66h-1.25v.72h1.81c0,.62-.01,1.28-.03,1.99-.02.71-.06,1.38-.11,2-.05.62-.13,1.13-.22,1.51,0,.04,0,.09-.03.13ZM106.72,79.14h.75v-.77h-.75v.77ZM106.75,74.13h3.57c-.78-.52-1.43-1.07-1.95-1.63-.2.27-.45.54-.73.82-.28.28-.58.55-.89.81ZM109.52,79.14h.87v-.77h-.87v.77Z"/>
          <path class="cls-3" d="M120.71,84.54v-2.65h-4.84v-1.66l4.84-8.35h2.02v8.14h1.75v1.87h-1.75v2.65h-2.02ZM117.98,80.02h2.74v-4.77l-2.74,4.77Z"/>
          <path class="cls-3" d="M134.47,84.98v-3.26h-7.01v-2.03h2.5v-3.33c-.14.15-.27.3-.41.45s-.27.29-.42.43c-.24-.25-.51-.49-.82-.74-.32-.25-.67-.47-1.06-.67.53-.48,1.04-1.04,1.54-1.67.49-.63.93-1.3,1.3-1.98.38-.69.66-1.34.84-1.96l2.21.69c-.06.19-.14.38-.22.58-.08.19-.16.38-.25.58h8.77v2.1h-4.51v1.54h3.26v2.03h-3.26v1.97h5.18v2.03h-5.18v3.26h-2.45ZM130.5,75.68h3.97v-1.54h-2.93c-.16.27-.33.53-.5.78-.18.26-.35.51-.54.75ZM132.38,79.68h2.08v-1.97h-2.08v1.97Z"/>
          <path class="cls-3" d="M147.28,84.93v-6.46c-.37.33-.77.64-1.18.92-.42.28-.84.54-1.28.78-.16-.34-.37-.66-.62-.97s-.53-.56-.83-.78c1.04-.58,1.97-1.23,2.77-1.97.8-.74,1.46-1.57,1.97-2.51h-4.22v-2.03h5.02c.16-.56.27-1.15.34-1.76l2.54.32c-.05.23-.11.47-.17.72-.06.25-.12.49-.2.72h7.02v2.03h-7.81c-.07.17-.15.34-.24.5-.08.16-.17.32-.26.48h6.03v8.13c0,.67-.2,1.15-.58,1.45-.39.29-.98.44-1.77.44h-1.33c-.02-.21-.06-.46-.11-.75-.05-.29-.11-.57-.18-.85-.07-.28-.14-.51-.22-.69h1.14c.22,0,.39-.03.49-.1s.15-.21.15-.43v-.54h-4.03v3.36h-2.43ZM149.71,77.52h4.03v-.62h-4.03v.62ZM149.71,79.86h4.03v-.62h-4.03v.62Z"/>
          <path class="cls-3" d="M162.77,84.82c-.44,0-.84-.11-1.21-.33-.37-.22-.67-.51-.89-.89-.22-.37-.33-.79-.33-1.25s.11-.86.33-1.22.51-.66.88-.88.78-.33,1.22-.33.87.11,1.24.33c.37.22.66.51.88.88.22.37.33.78.33,1.22s-.11.87-.33,1.25c-.22.37-.52.67-.89.89s-.78.33-1.23.33ZM162.77,83.78c.39,0,.73-.14,1-.42.27-.28.41-.61.41-.98s-.13-.72-.4-1c-.27-.28-.6-.42-1.01-.42s-.73.14-1,.42c-.27.28-.41.61-.41,1.01s.14.71.41.99c.27.28.61.42,1,.42Z"/>
        </g>
      </g>
    </g>
  </g>
</svg>