<?xml version="1.0" encoding="UTF-8"?>
<svg id="_レイヤー_2" xmlns="http://www.w3.org/2000/svg" version="1.1" viewBox="0 0 1575.5 256">
  <!-- Generator: Adobe Illustrator 30.0.0, SVG Export Plug-In . SVG Version: 2.1.1 Build 123)  -->
  <defs>
    <style>
      .st0 {
        fill: #373c4f;
      }

      .st1 {
        isolation: isolate;
      }
    </style>
  </defs>
  <g id="_パソコンデザイン">
    <g class="st1">
      <g class="st1">
        <g class="st1">
          <g class="st1">
            <g class="st1">
              <path class="st0" d="M131,245.3c-1.4-2.7-3.3-5.9-5.6-9.5-2.3-3.7-4.8-7.3-7.4-10.9-2.6-3.6-5.2-6.5-7.9-8.9,21.7-3.8,39.3-9.7,52.9-17.8,13.5-8.1,23.4-17.6,29.7-28.5,6.3-10.9,9.4-22.6,9.4-35s-2.6-24.7-7.9-35.4c-5.3-10.7-12.9-19.5-22.9-26.5-10-7-22.1-11.5-36.4-13.5-2.2,22.8-5.6,44.2-10.5,64.2-4.8,20-10.7,37.6-17.5,52.9-6.8,15.2-14.3,27.2-22.3,35.9-8.1,8.7-16.5,13-25.3,13s-14.3-2.1-21.4-6.2c-7.1-4.1-13.5-10-19.1-17.6-5.6-7.6-10.2-16.6-13.6-27C1.7,164.2,0,152.8,0,140.4s2.7-28.2,8.1-41.4c5.4-13.3,13.3-25.1,23.7-35.5,10.4-10.4,23.1-18.6,38.2-24.6,15.1-6,32.3-9,51.6-9s34.5,2.9,48.7,8.7c14.2,5.8,26.1,13.7,35.8,23.5,9.7,9.9,17,21.1,22.1,33.6,5,12.6,7.5,25.6,7.5,39,0,27.4-8.9,50.6-26.6,69.5-17.8,18.9-43.8,32.6-78,41ZM57.3,188.8c3,0,6.7-3.1,10.9-9.4,4.2-6.3,8.6-15.2,13-26.8,4.5-11.6,8.7-25.2,12.5-41,3.9-15.8,6.9-33.2,9-52.2-15.2,2.2-28.2,7.2-38.9,15.2-10.7,8-18.7,17.7-24.2,29.1-5.5,11.4-8.2,23.4-8.2,35.9s1.3,18.2,3.8,25.7c2.5,7.4,5.7,13.2,9.7,17.4,3.9,4.1,8.1,6.2,12.4,6.2Z"/>
            </g>
            <g class="st1">
              <path class="st0" d="M464.3,254.7c-22.6,0-41.3-1.8-56.1-5.4-14.8-3.6-26.4-8.5-34.7-14.7-8.3-6.2-14.3-13.4-17.8-21.5-3.5-8.2-5.2-16.8-5.2-26s2.1-17.7,6.3-26.1c4.2-8.4,11-16.1,20.3-23.1-17.6,2.9-34.8,5.9-51.8,9-16.9,3.1-32.3,6.4-46.1,9.8-.7-4.7-1.9-10.1-3.6-16.4-1.7-6.3-3.5-11.7-5.5-16.1,7.2-.9,14.9-1.8,23.3-2.7,8.3-.9,17-2,26-3.2,5.6-4.8,11.8-10.4,18.7-16.7,6.9-6.3,14-12.8,21.3-19.6,7.3-6.8,14.3-13.5,21.3-19.9,6.9-6.5,13.1-12.2,18.7-17.2-7.2.9-15.4,1.9-24.7,3-9.3,1.1-18.5,2.2-27.6,3.2-9.1,1.1-17,2.2-23.8,3.2-.4-4.5-1-9.9-2-16.1-1-6.3-2.1-11.4-3.4-15.3,7-.2,14.9-.4,23.7-.8,8.8-.4,17.8-.8,27-1.2,9.2-.4,18.2-1,26.8-1.6,8.6-.6,16.2-1.3,22.7-1.9,6.5-.6,11.5-1.2,14.9-1.7,1.3,1.8,3,4.1,5.1,6.9,2.2,2.8,4.4,5.6,6.9,8.3,2.4,2.8,4.4,5.1,6.1,6.9-3.4,2.3-8.3,6.2-14.8,11.7-6.5,5.5-13.7,11.8-21.8,19.1-8.1,7.3-16.3,14.8-24.6,22.5-8.3,7.7-16.1,14.8-23.3,21.3,16.1-2.2,32.1-4.4,47.9-6.7,15.8-2.3,30.7-4.6,44.8-6.7,14.1-2.2,26.4-4.1,37-5.9,0,1.4.2,4.3.5,8.6.4,4.3.8,8.7,1.2,13,.4,4.4.8,7.7,1.2,9.8-7.2.4-14.8.8-23,1.3-8.2.5-15.6,1.3-22.5,2.2-21.3,2.5-38.3,8.8-50.8,19-12.6,10.1-18.8,22.9-18.8,38.3s2.9,15,8.7,20.8c5.8,5.8,15.1,10.2,27.8,13,12.7,2.9,29.6,4,50.6,3.5-1.8,4.7-3.4,10.2-4.7,16.5-1.3,6.4-2,11.6-2,15.7ZM483.4,70.2c-.4-.5-1.8-2.6-4.4-6.2-2.6-3.6-5.5-7.6-8.6-12.1-3.1-4.5-6-8.4-8.6-11.8-2.6-3.4-4.1-5.4-4.4-5.9l14.5-10.2c.4.5,1.8,2.6,4.4,6.2,2.6,3.6,5.5,7.6,8.6,12,3.1,4.4,6,8.3,8.6,11.8,2.6,3.5,4.1,5.5,4.4,6.1l-14.5,10.2ZM508.9,52.4c-.4-.5-1.8-2.6-4.3-6.2-2.5-3.6-5.3-7.6-8.5-12.1-3.1-4.5-6-8.4-8.6-11.8-2.6-3.4-4.1-5.4-4.4-5.9l14.5-10.2c.4.5,1.8,2.6,4.3,6.2,2.5,3.6,5.4,7.6,8.6,12,3.2,4.4,6.1,8.3,8.6,11.8,2.5,3.5,3.9,5.5,4.3,6.1l-14.5,10.2Z"/>
            </g>
            <g class="st1">
              <path class="st0" d="M601.7,230c-11.5-10.4-20.1-23.2-25.8-38.5-5.7-15.2-9-32.9-9.7-53-.7-17,.3-34.3,3-51.9,2.7-17.6,6.3-34.6,10.8-51.1,4.8,1.4,10.5,3.1,16.9,4.8,6.5,1.8,12.4,3.1,17.8,4-5.6,15.1-9.6,30.6-12.2,46.5-2.6,16-3.7,30.9-3.4,44.9.4,9.9,1.6,19.1,3.6,27.7,2.1,8.6,4.8,15.7,8.2,21.3,2.2,3.4,4.2,5.2,6.2,5.2,2,0,4.1-1.3,6.5-4.2,2.2-3,4.8-7.4,7.9-13.2,3.1-5.7,5.8-11.3,7.9-16.7,3,4.5,6.6,9,10.6,13.6,4,4.6,7,8.1,9,10.6-2.7,8.4-6.1,16.7-10.1,24.9-4,8.2-8.6,15.3-13.6,21.4-10.6,13.1-21.8,14.3-33.6,3.5ZM757.2,187.7c-3.6-9.9-7.9-20-13-30.5-5.1-10.5-10.8-20.7-16.9-30.7-6.2-10-12.7-19-19.5-27,5-1.3,10.3-3.1,15.9-5.5,5.6-2.4,10-4.5,13.2-6.3,7,7.4,14,16.1,21,26.4s13.4,20.7,19.1,31.3c5.7,10.7,10,20.6,12.9,29.7-3.9,1.3-9,3-15.1,5.1-6.1,2.2-11.9,4.7-17.5,7.5Z"/>
            </g>
            <g class="st1">
              <path class="st0" d="M1010.3,245.6c-28.9-1.4-52.3-6.4-70.3-14.8-18-8.4-31.2-19.8-39.5-34.2-8.3-14.3-12.5-30.9-12.5-49.8s3.5-31.1,10.4-43.8c6.9-12.7,16.6-23.8,29.2-33.1-14.7,2-29.3,3.9-43.7,5.9-14.4,2-27.5,3.8-39.3,5.5-11.7,1.7-21.2,3.2-28.4,4.4,0-2.7-.3-6.1-.9-10.4-.6-4.2-1.3-8.4-2-12.6-.7-4.2-1.4-7.6-2.2-10.1,8.4-.5,18.6-1.3,30.5-2.3,11.9-1,24.9-2.2,38.9-3.6,14-1.4,28.3-3,42.9-4.8,14.6-1.8,28.7-3.6,42.2-5.4,13.5-1.8,25.9-3.6,37.1-5.5,11.2-1.9,20.3-3.6,27.3-5.2.9,2.7,2,6,3.4,10,1.3,3.9,2.7,7.9,4.2,11.8,1.4,3.9,2.8,7.3,4,10-3.9.2-8.2.4-12.8.5-4.6.2-10,.7-16.3,1.6-16.7,2-32,6.7-46,14.1-14,7.4-25.2,17.4-33.5,29.7-8.3,12.4-12.5,26.8-12.5,43.3s7.8,36.4,23.4,47.7c15.6,11.4,41.3,17.9,77.2,19.5-2.7,4.5-5,9.6-6.9,15.5-1.9,5.8-3.2,11.2-3.9,16Z"/>
            </g>
            <g class="st1">
              <path class="st0" d="M1200,255.8c-3.2-3.1-7.4-6.3-12.5-9.8-5.1-3.5-10.1-6.1-14.9-7.9,25.6-17.6,46.2-40.7,61.6-69.4-9.5-3-18.9-5.7-28.2-7.9-9.3-2.2-18.6-4-27.7-5.2-.5.9-1,1.8-1.5,2.8-.5,1-.9,1.9-1.2,2.8-8.8,17.6-18.5,30.8-29.1,39.7-10.6,8.9-22.4,13.3-35.5,13.3s-12.2-1.3-17.9-4c-5.6-2.7-10.2-6.6-13.7-11.8-3.5-5.2-5.2-11.6-5.2-19.1,0-10.9,3.1-20.5,9.4-28.8,6.3-8.2,15-14.7,26.2-19.2,11.2-4.6,24.3-6.9,39.4-6.9h5c1.7,0,3.5,0,5.2.3,3.9-8.6,7.7-17.4,11.3-26.5,3.6-9.1,6.9-17.4,9.8-25.2,3-7.7,5.2-13.8,6.9-18.3-3.2.2-7.8.5-13.7,1.1s-12.2,1.2-19,1.9c-6.7.7-13.1,1.4-19.1,2.2-6,.7-10.8,1.3-14.4,1.9-.4-4.1-.9-9.3-1.6-15.6-.7-6.3-1.5-11.4-2.4-15.3,3.8,0,8.8-.2,15.2-.5,6.4-.4,13.3-.8,20.8-1.3,7.5-.5,15-1.1,22.3-1.7,7.4-.6,13.9-1.3,19.8-2,5.8-.7,10.3-1.4,13.3-2.2,2.2,1.6,5.2,3.7,9.1,6.3,3.9,2.6,7.4,4.6,10.2,6.1-1.4,2.7-3.5,7.2-6.2,13.6-2.7,6.4-5.7,13.9-9.1,22.7-3.4,8.8-7,18.1-10.9,27.8-3.9,9.8-7.8,19.4-11.7,28.9,9,1.4,18.2,3.3,27.7,5.5,9.5,2.2,19.2,4.8,29.1,7.7,3-7.9,5.6-16,7.5-24.3,2-8.3,3.3-16.7,4-25.2,4.5,1.3,9.7,2.5,15.7,3.6,6,1.2,11.3,2.1,15.7,2.8-3.8,18.7-8.7,36-14.8,52.2,7,2.3,13.9,4.8,20.7,7.5,6.8,2.7,13.5,5.5,20.2,8.3-1.6,2.2-3.4,5-5.4,8.6-2,3.6-3.9,7.3-5.6,11-1.8,3.8-3.2,7.1-4.3,10-12.9-6.3-25.6-11.9-37.9-16.9-7.7,15.2-16.8,29.3-27.2,42.1-10.4,12.8-22.2,24.3-35.5,34.6ZM1112.8,183.4c5.6,0,11-2.7,16.4-8.2,5.4-5.5,10.8-13,16.1-22.7h-7c-7.5,0-13.9,1.2-19,3.5-5.1,2.3-8.9,5.2-11.4,8.6-2.5,3.4-3.8,6.8-3.8,10.2,0,5.7,2.9,8.6,8.6,8.6Z"/>
            </g>
            <g class="st1">
              <path class="st0" d="M1543,245.6c-28.9-1.4-52.3-6.4-70.3-14.8-18-8.4-31.2-19.8-39.5-34.2-8.3-14.3-12.5-30.9-12.5-49.8s3.5-31.1,10.4-43.8c6.9-12.7,16.6-23.8,29.2-33.1-14.7,2-29.3,3.9-43.7,5.9-14.4,2-27.5,3.8-39.3,5.5-11.7,1.7-21.2,3.2-28.4,4.4,0-2.7-.3-6.1-.9-10.4-.6-4.2-1.3-8.4-2-12.6-.7-4.2-1.4-7.6-2.2-10.1,8.4-.5,18.6-1.3,30.5-2.3,11.9-1,24.9-2.2,38.9-3.6,14-1.4,28.3-3,42.9-4.8,14.6-1.8,28.7-3.6,42.2-5.4,13.5-1.8,25.9-3.6,37.1-5.5,11.2-1.9,20.3-3.6,27.3-5.2.9,2.7,2,6,3.4,10,1.3,3.9,2.7,7.9,4.2,11.8,1.4,3.9,2.8,7.3,4,10-3.9.2-8.2.4-12.8.5-4.6.2-10,.7-16.3,1.6-16.7,2-32,6.7-46,14.1-14,7.4-25.2,17.4-33.5,29.7-8.3,12.4-12.5,26.8-12.5,43.3s7.8,36.4,23.4,47.7c15.6,11.4,41.3,17.9,77.2,19.5-2.7,4.5-5,9.6-6.9,15.5-1.9,5.8-3.2,11.2-3.9,16Z"/>
            </g>
          </g>
        </g>
      </g>
    </g>
  </g>
</svg>