<?xml version="1.0" encoding="UTF-8"?>
<svg id="_スマホ" data-name="スマホ" xmlns="http://www.w3.org/2000/svg" viewBox="0 0 44.6 44.26">
  <defs>
    <style>
      .cls-1 {
        fill: #363b34;
      }

      .cls-2 {
        fill: #eac697;
      }

      .cls-3 {
        fill: #b47f43;
      }
    </style>
  </defs>
  <path class="cls-2" d="M19.31-2.7s3.38,7.81,8.25,8.31,6.29.07,7.11,2.84,2.18,14.69,12.9,19.11S56.8-1.18,56.8-1.18l-37.49-1.53Z"/>
  <path class="cls-3" d="M-6.23,3.53c-.37-.3-.49-.67-.79-.61-.02,0-.04.02-.06.02.17.36.36.64.57.77.09.06.27.14.51.23-.02-.16-.07-.28-.22-.42ZM85.14,9.44c.35.07.69.15,1.04.23-.35-.08-.7-.16-1.04-.23ZM85.04,9.41s0,0,0,0c.03,0,.07.01.1.02-.03,0-.07-.02-.1-.02ZM87.99,12c0,.65-.81,2.44-1.95.81-.83-1.19-1.23-2.64-1-3.39-4.4-.89-8.15-.85-10.15-1.46-2.37-.72-11.04-4.64-18.68-6.29C48.58.01,38.77-4.94,33.2-5.35c-5.57-.41-6.4-1.44-8.87-2.06-2.48-.62-8.05-.83-9.49-.52-.21.04-.49.05-.81.02,0,0,0,0,.01,0,.03.94-.13,2.19-.9,3.02-1.06,1.14-2.68,2.44-3,3.73-.32,1.3-1.87-.08-2.03-.65-.16-.57-.97-1.38-1.38-1.54-.41-.16-.57-.49-.57-.49,0,0,1.24-.63,1.32-2.5.08-1.87-.1-2.62-.35-3.35,0,0,0-.01,0-.02-1.29-2.29-1.63-3.77-2.81-3.08-1.24.72-2.27,3.71-2.27,3.71,0,0-.52-2.48-1.75-3.61-1.24-1.14-2.17-2.58-2.89-1.65-.72.93-1.86,3.4-2.17,5.37-.31,1.96-.31,2.99-1.03,3.51-.22.16-.64.47-1.15.86-.46,1.39-.87,2.73-.87,3.76,0,.95.21,2.38.57,3.4.2-.09.34-.2.34-.43,0-.37-.24-1.03,0-1.03s1.34-.12,2.31,0c.97.12,2.13.73,3.04.61.91-.12.12-.97.61-1.46C-.45-.24.04-.97-.69-1.34c-.73-.37-2.07-.73-2.5-.43-.43.3-.55,1.28-1.04.91-.49-.37-1.16-.85-1.03-1.28.12-.43.06-1.7,1.22-1.7s1.71,1.28,2.8,1.46c1.1.18,1.64-.49,2.37-.43.73.06,1.46.91,1.34,1.83-.12.91.06,1.64,1.22,2.56,1.16.91,2.31,2.8,1.1,3.65-.61.42-1.73.93-2.93,1.26.23.06.41.11.55.14,1.46.32,3.41,1.14,4.06-.32.65-1.46.81-5.03,2.44-5.36,1.62-.32,2.76,1.14,3.41.49.65-.65,1.14-3.73,3.9-2.76.53.19,1.12.58,1.74,1.08.13-.04.25-.08.37-.11.73-.16.97-.08,2.27.65,1.3.73,2.44.97,4.3,1.38,1.87.41.89-.89,1.54-2.03.65-1.14,3.9,0,4.87.97.97.97,2.6,4.06,3.25,4.22.65.16,1.79-.32,4.06-.32s3.08,1.62,3.08,3.41-2.44,9.74-.49,9.58c1.95-.16,3.57-.65,5.2,1.95,1.62,2.6,1.95,7.31,3.73,8.12,1.79.81,6.49,2.43,8.61,2.27,2.11-.16,3.9-.97,6.33-2.11,1.9-.89,4.29-1.27,6.94-.94-.92-.95-1.65-2-1.91-3.28-.49-2.44-2.6-7.47.97-8.44,3.57-.97,4.87.97,6.66,2.6,1.79,1.62,2.76,2.92,2.76,4.06s-2.11.33-1.3,1.95c.79,1.57,1.11,4.36-.35,4.97.74.34,1.18.71,1.32,1.2.32,1.14.97,4.87,3.25,3.09,2.27-1.79,4.71-.16,6.33-1.3,1.62-1.14,2.27-3.41,1.62-6.33-.65-2.92-1.79-6.82-.49-8.44.56-.7.9-1.24,1.32-1.59-1.92-1.77-4.25-3.92-4.25-3.28ZM.39-6.67c-.85.69-1.83,1.38-2.15,1.22-.32-.16-1.38-.2-.85-.61.53-.41.73-.89,1.5-.93.77-.04,1.22-.04,1.46-.24.24-.2,1.32-.69,1.32-.69,0,0-.42.57-1.28,1.26ZM54.05,4.85c-1.46-.81-2.76-1.62-1.79-1.95.97-.32,2.76,0,3.73.32,1.45.48-.49,2.44-1.95,1.62ZM61.36,10.05c-1.46-.97-1.46-1.79-1.14-2.76.53-1.59,1.79-2.6,3.25-1.46,1.46,1.14,1.79,3.08,1.79,4.87s-2.44.32-3.9-.65ZM115.12,44.45c-.36,1.96-1.15,3.26-.18,4.08,1.14.97,3.73,4.38,4.55,4.22.36-.07.89-.67,1.45-1.35-1.93-2.35-3.88-4.7-4.98-5.99-.29-.34-.57-.66-.83-.97ZM120.62,24.66c-.11-1.14,1.13-1.8,3.01-2.37-.55-.11-1.09-.2-1.48-.2-1.24,0-2.17-.31-2.17-.31l1.24-.31s-5.88-.72-9.08-1.14c-3.2-.41-8.98-1.55-10.83-2.58,0,0,.02.01.03.02-.05.51-.25.88-.69.88-.35,0-.84-.07-1.42-.19,1.06,1.29,1.72,2.48,1.42,2.63-.65.32-1.14-.32-2.44.65-1.3.97-4.87,9.09-3.73,10.72,1.14,1.62,3.9,1.3,3.25,3.57-.5,1.74-2.13,3.19-2.87,3.78.47.37,1.03.77,1.65,1.21,0,0,.02.01.03.02.6.42,1.25.87,1.96,1.34.04.03.09.06.13.09.15.1.29.19.44.29.07.05.14.09.21.14.14.09.27.18.41.27.11.07.22.14.33.21.16.11.33.21.5.32.17.11.34.22.51.33.1.06.2.13.3.19.15.1.3.19.45.29.1.06.2.13.3.19.17.11.34.22.52.33.08.05.16.1.24.15.26.16.52.33.78.49.32.2.62.38.91.56.08.05.16.1.24.15.21.13.43.25.63.37.08.05.15.09.23.13.22.13.43.25.63.36.05.03.09.05.14.08.25.14.49.28.72.41,2.77-1.25,5.88-1.34,4.09-4.23-2.11-3.41-8.12-7.96-7.31-11.2.36-1.43,1.12-2.2,1.91-2.61-.06-.09-.11-.18-.17-.26-1.65-2.58-2.17-3.82-2.17-3.82-.91-.84-.55-2.08-1.36-3.05-.81-.97-.49-.81.16-.81s.97-.49,1.3-1.95c.32-1.46,1.14-.81,1.95-.32.81.49,1.95,1.62,2.11,2.27.16.65,1.3,2.11,1.95,2.27.65.16.33-1.14.33-1.95s1.79-.97,2.6-.81c.81.16-.49.97-.65,1.79-.13.64.05,2.18.52,3.83,1.5.24,2.89.48,3.91.71-.02-1.85.84-4.37,1.25-5.19.49-.97,1.62,0,1.3.97-.25.76-.8,2.59-.8,4.67-.02,0-.03,0-.04-.01.78.22,1.72.48,2.72.74-.13-1.17.03-2.86-.09-4.09ZM120.72,28.76s.02,0,.02,0c0,0-.02,0-.02,0h0ZM122.05,29.09c-.44-.11-.88-.22-1.31-.33.43.11.86.22,1.31.33Z"/>
  <path class="cls-3" d="M75.71,56.04c.42.35.57.78.92.71.03,0,.05-.02.07-.03-.19-.42-.41-.74-.66-.89-.11-.07-.32-.16-.59-.27.03.19.08.33.26.48ZM-30.41,49.18c-.4-.08-.81-.17-1.21-.27.41.1.81.18,1.21.27ZM-30.29,49.21s0,0,0,0c-.04,0-.08-.01-.12-.02.04,0,.08.02.12.03ZM-33.71,46.21c0-.75.94-2.83,2.26-.94.97,1.38,1.43,3.07,1.16,3.94,5.11,1.04,9.47.99,11.79,1.69,2.76.84,12.82,5.39,21.69,7.31,8.87,1.92,20.25,7.67,26.72,8.15,6.47.48,7.43,1.68,10.31,2.4,2.88.72,9.35.96,11.02.6.24-.05.57-.05.94-.03,0,0,0,0-.01,0-.03-1.09.16-2.54,1.05-3.5,1.23-1.32,3.11-2.83,3.49-4.34.38-1.51,2.17.09,2.36.75.19.66,1.13,1.6,1.6,1.79.47.19.66.57.66.57,0,0-1.44.73-1.53,2.9-.09,2.17.12,3.04.4,3.89,0,0,0,.02,0,.02,1.5,2.66,1.89,4.38,3.26,3.58,1.44-.84,2.64-4.31,2.64-4.31,0,0,.6,2.88,2.04,4.19,1.44,1.32,2.52,3,3.36,1.92.84-1.08,2.16-3.95,2.52-6.23.36-2.28.36-3.48,1.2-4.07.26-.18.75-.55,1.33-1,.54-1.61,1.01-3.18,1.01-4.37,0-1.1-.24-2.76-.67-3.94-.23.11-.39.24-.39.5,0,.42.28,1.2,0,1.2s-1.56.14-2.69,0c-1.13-.14-2.47-.85-3.54-.71-1.06.14-.14,1.13-.71,1.7-.57.57-1.13,1.41-.28,1.84.85.42,2.4.85,2.9.49.5-.35.64-1.48,1.2-1.06.57.42,1.34.99,1.2,1.48-.14.49-.07,1.98-1.41,1.98s-1.98-1.49-3.25-1.7c-1.27-.21-1.91.57-2.76.49-.85-.07-1.7-1.06-1.56-2.12.14-1.06-.07-1.91-1.41-2.97-1.34-1.06-2.69-3.25-1.27-4.24.71-.49,2.01-1.07,3.4-1.46-.26-.07-.48-.13-.64-.16-1.7-.38-3.96-1.32-4.71.38-.75,1.7-.94,5.85-2.83,6.22-1.89.38-3.21-1.32-3.96-.57-.75.75-1.32,4.34-4.53,3.21-.62-.22-1.3-.67-2.02-1.26-.15.05-.29.1-.43.13-.85.19-1.13.09-2.64-.75-1.51-.85-2.83-1.13-5-1.6-2.17-.47-1.04,1.04-1.79,2.36-.75,1.32-4.53,0-5.66-1.13-1.13-1.13-3.02-4.71-3.77-4.9-.75-.19-2.07.38-4.71.38s-3.58-1.89-3.58-3.96,7.54-6.03,9.43-5.66c.61.12,1.2.02,1.78-.24-.54-.37-1.02-.69-1.41-.89-2.45-1.32-6.98-4.53-9.24-4.34-2.26.19-4.15.75-6.03-2.26-1.89-3.02-2.26-8.49-4.34-9.43-2.07-.94-7.54-2.83-9.99-2.64-2.45.19-4.53,1.13-7.35,2.45-2.2,1.03-4.98,1.48-8.06,1.1,1.07,1.1,1.92,2.33,2.21,3.81.57,2.83,3.02,8.67-1.13,9.81-4.15,1.13-5.66-1.13-7.73-3.02-2.07-1.89-3.21-3.39-3.21-4.71s2.45-.38,1.51-2.26c-.91-1.83-1.29-5.06.4-5.78-.86-.39-1.37-.82-1.53-1.39-.38-1.32-1.13-5.66-3.77-3.58-2.64,2.07-5.47.19-7.35,1.51-1.89,1.32-2.64,3.96-1.89,7.35.75,3.39,2.07,7.92.57,9.81-.65.81-1.05,1.44-1.54,1.84,2.23,2.05,4.93,4.55,4.93,3.81ZM68.02,67.89c.99-.8,2.12-1.6,2.5-1.41.38.19,1.6.24.99.71-.61.47-.85,1.04-1.74,1.08-.9.05-1.41.05-1.7.28-.28.24-1.53.8-1.53.8,0,0,.49-.66,1.48-1.46ZM5.7,54.51c1.7.94,3.21,1.89,2.07,2.26-1.13.38-3.21,0-4.34-.38-1.69-.56.57-2.83,2.26-1.89ZM-2.78,48.47c1.7,1.13,1.7,2.07,1.32,3.21-.61,1.84-2.07,3.02-3.77,1.7-1.7-1.32-2.07-3.58-2.07-5.66s2.83-.38,4.53.75ZM-65.23,8.52c.42-2.28,1.33-3.78.21-4.74-1.32-1.13-4.34-5.09-5.28-4.9-.42.09-1.04.78-1.69,1.57,2.24,2.72,4.51,5.46,5.79,6.95.34.4.66.77.97,1.12ZM-71.61,31.5c.13,1.32-1.32,2.09-3.49,2.75.64.13,1.26.23,1.72.23,1.44,0,2.52.36,2.52.36l-1.44.36s6.83.84,10.55,1.32c3.71.48,10.43,1.8,12.58,3-.01,0-.03-.01-.04-.02.06-.6.29-1.02.8-1.02.4,0,.98.08,1.64.23-1.23-1.49-2-2.88-1.64-3.05.75-.38,1.32.38,2.83-.75,1.51-1.13,5.66-10.56,4.34-12.45-1.32-1.89-4.53-1.51-3.77-4.15.58-2.02,2.47-3.7,3.34-4.39-.55-.43-1.19-.9-1.91-1.4-.01,0-.02-.02-.03-.02-.69-.49-1.45-1.01-2.27-1.55-.05-.03-.1-.07-.15-.1-.17-.11-.34-.23-.51-.34-.08-.05-.16-.11-.25-.16-.16-.1-.32-.21-.48-.31-.13-.08-.25-.17-.38-.25-.19-.12-.38-.25-.58-.37-.19-.13-.39-.25-.59-.38-.11-.07-.23-.15-.34-.22-.17-.11-.35-.22-.53-.34-.12-.07-.23-.15-.35-.22-.2-.13-.4-.25-.6-.38-.09-.06-.18-.12-.27-.17-.3-.19-.6-.38-.91-.57-.37-.23-.72-.45-1.06-.65-.1-.06-.19-.11-.28-.17-.25-.15-.49-.3-.73-.43-.09-.05-.18-.1-.27-.16-.25-.15-.5-.29-.73-.42-.05-.03-.11-.06-.16-.09-.29-.16-.57-.32-.84-.47-3.22,1.45-6.82,1.55-4.75,4.91,2.45,3.96,9.43,9.24,8.49,13.01-.41,1.66-1.3,2.55-2.22,3.03.07.1.13.21.2.31,1.92,3,2.52,4.43,2.52,4.43,1.06.98.63,2.41,1.58,3.54.94,1.13.57.94-.19.94s-1.13.57-1.51,2.26c-.38,1.7-1.32.94-2.26.38-.94-.57-2.26-1.89-2.45-2.64-.19-.75-1.51-2.45-2.26-2.64-.75-.19-.38,1.32-.38,2.26s-2.07,1.13-3.02.94c-.94-.19.57-1.13.75-2.07.15-.74-.05-2.53-.6-4.45-1.74-.28-3.36-.56-4.54-.82.02,2.15-.98,5.08-1.45,6.03-.57,1.13-1.89,0-1.51-1.13.29-.88.92-3.01.93-5.42.02,0,.03,0,.05.01-.91-.25-2-.55-3.16-.86.15,1.36-.03,3.33.11,4.75ZM-71.72,26.75s-.02,0-.03,0c0,0,.02,0,.03,0h0ZM-73.27,26.36c.52.12,1.02.25,1.52.38-.49-.13-1-.26-1.52-.38Z"/>
  <path class="cls-1" d="M18.61,34.46c.99-.82,4.12-2.96,5.6-2.63,1.48.33,6.64,2.25,8.18-1.04,1.54-3.29,2.41-4.61,1.1-5.49s-2.85-2.42-4.61-1.32c-1.76,1.1-3.73,3.29-5.71,1.98-1.98-1.32-3.07.44-3.29,1.98-.22,1.54-.44,2.85-3.07,1.98-2.63-.88-2.63-2.2-3.73.66-1.1,2.85-3.07,2.41-2.42,4.17.66,1.76,1.54,1.76,0,3.07-.62.53-1.16,1.05-1.52,1.41l.27,1.58c.25.39.52.76.77,1.11,1.47.49,4.18,1.4,5.31.13,1.32-1.48,4.45-4.12,3.62-4.77-.82-.66-1.48-1.98-.49-2.8Z"/>
  <path class="cls-1" d="M37.17,30.5c-1.98,0-2.41,0-2.85.88-.44.88-2.85,2.63-3.95,2.2-1.1-.44-5.27-.66-4.83.44,1.17,2.92,7.24,2.85,7.9,1.1.66-1.76,3.51-1.1,4.83-2.2,1.32-1.1.88-2.41-1.1-2.41Z"/>
  <path class="cls-1" d="M4.24,34.38c-.58-.27-1.56-.89-1.86-2.11-.44-1.76.44-5.27.66-7.24.22-1.98-1.1-2.2-2.2.22-1.1,2.41-1.76,3.73-1.76,5.71s.44,2.41-.22,3.51c-.66,1.1.22,2.2,1.76,1.54,1.54-.66,1.54-.44,1.59,1.51.41-1.4,2.14-2.06,2.14-2.06l.33-.91-.33.33-.11-.5Z"/>
  <path class="cls-1" d="M6.51,31.88c.33-3.61,2.41-3.29,4.17-5.49,1.76-2.19,3.51-4.39,3.73-5.71.22-1.32,1.1-3.73,3.95-3.95,2.85-.22,7.02-2.2,8.34-1.98,1.32.22-3.95-2.85-6.59-1.1-2.63,1.76-4.83,2.85-6.59,4.17-1.76,1.32-5.27,0-5.93,2.63-.66,2.63,0,3.29-.88,5.05-.88,1.76-3.07,3.51-2.19,5.27.88,1.76,1.76,3.51,1.98,1.1Z"/>
  <path class="cls-1" d="M.83,22.67c1.12-2.11,1.23-3.4,1.7-3.93.47-.52,4.13-.51,5.51-.93,1.38-.42,4.04-2.88,3.3-4.04-.73-1.16-2.42-.9-1.12-2.43,1.3-1.53,2.08-2.47,3.4-3.31,1.32-.85,1.51-1.03,1.72-1.79.71-2.57-.93-8.79-2.74-9.75s-3.06-2.97-5.04-2.87c-1.99.1-4.08-1.4-5.01-1.11-.92.28-6.28.92-7.25,3.1-.97,2.19-1.23,9.96-.23,12.43,1.01,2.47,1.64,4.54.54,5.89-1.1,1.35-1.14,9.05.52,9.93s3.56.93,4.68-1.18Z"/>
  <g>
    <path class="cls-1" d="M31.63,19.18c-.73-.24-2.07-.49-2.8-.24-.73.24.24.85,1.34,1.46,1.1.61,2.55-.85,1.46-1.22Z"/>
    <path class="cls-1" d="M37.23,21.13c-1.1-.85-2.04-.09-2.44,1.1-.24.73-.24,1.34.85,2.07,1.1.73,2.92,1.83,2.92.49s-.24-2.8-1.34-3.65Z"/>
  </g>
</svg>